<svg xmlns="http://www.w3.org/2000/svg" viewBox="0 0 1080 1080">
<defs>
<linearGradient id="a" x1="0" y1="0" x2="1" y2="1"><stop offset="0" stop-color="#0B1020"/><stop offset=".45" stop-color="#131B33"/><stop offset="1" stop-color="#1D2A4A"/></linearGradient>
<linearGradient id="b" x1="0" y1="0" x2="1" y2="1"><stop offset="0" stop-color="#7EF9FF"/><stop offset=".5" stop-color="#6AA8FF"/><stop offset="1" stop-color="#A58BFF"/></linearGradient>
<linearGradient id="c" x1="0" y1="0" x2="0" y2="1"><stop offset="0" stop-color="#FFE7A8"/><stop offset=".5" stop-color="#F8C76A"/><stop offset="1" stop-color="#D98D29"/></linearGradient>
</defs>
<rect width="1080" height="1080" fill="url(#a)"/>
<circle cx="540" cy="540" r="445" fill="none" stroke="#24345E" stroke-width="14"/>
<circle cx="540" cy="540" r="420" fill="none" stroke="url(#b)" stroke-width="18"/>
<circle cx="540" cy="540" r="330" fill="none" stroke="#2A3A64" stroke-width="46"/>
<circle cx="540" cy="540" r="330" fill="none" stroke="url(#b)" stroke-width="46" stroke-linecap="round" stroke-dasharray="1865 2073" transform="rotate(-90 540 540)"/>
<circle cx="540" cy="540" r="265" fill="#0F172D" stroke="#2D3D68" stroke-width="6"/>
<circle cx="540" cy="540" r="220" fill="none" stroke="#203056" stroke-width="2"/>
<text x="540" y="340" fill="#9CB5E7" text-anchor="middle" font-family="Inter,Segoe UI,Arial,sans-serif" font-size="32" letter-spacing="6">ON-CHAIN REPUTATION</text>
<g transform="translate(540 548)">
<polygon points="0,-92 80,-46 80,46 0,92 -80,46 -80,-46" fill="#121E3B" stroke="#3F5D9B" stroke-width="4"/>
<polygon points="0,-58 50,-29 50,29 0,58 -50,29 -50,-29" fill="#1B2C55" stroke="#7EA3FF" stroke-width="3"/>
<circle r="16" fill="#BFD5FF"/>
</g>
<g fill="url(#c)" stroke="#6B4718" stroke-width="2">
<path d="M305 495l20 40 45 6-33 31 8 44-40-21-40 21 8-44-33-31 45-6z"/>
<path d="M775 495l20 40 45 6-33 31 8 44-40-21-40 21 8-44-33-31 45-6z"/>
</g>
<text x="540" y="920" fill="#5E76AB" text-anchor="middle" font-family="Inter,Segoe UI,Arial,sans-serif" font-size="20" letter-spacing="3">MINTED FOR REPUTATION PROTOCOL</text>
</svg>
