<svg xmlns="http://www.w3.org/2000/svg" xmlns:xlink="http://www.w3.org/1999/xlink" contentStyleType="text/css" data-diagram-type="SEQUENCE" height="1127px" preserveAspectRatio="none" style="width:1293px;height:1127px;background:#FFFFFF;" version="1.1" viewBox="0 0 1293 1127" width="1293px" zoomAndPan="magnify"><?plantuml 1.2026.3beta6?><defs/><g><g class="title" data-source-line="1"><text fill="#000000" font-family="sans-serif" font-size="14" font-weight="700" lengthAdjust="spacing" textLength="298.0674" x="493.9663" y="27.9951">Cas passant &#8212; AuditRegistry Protocol</text></g><g class="participant-lifeline" data-entity-uid="part1" data-qualified-name="Auditeur" data-source-line="3" id="part1-lifeline"><g><title>Auditeur</title><rect fill="#000000" fill-opacity="0.00000" height="926.8516" width="8" x="33.979" y="118.5938"/><line style="stroke:#181818;stroke-width:0.5;stroke-dasharray:5,5;" x1="37" x2="37" y1="118.5938" y2="1045.4453"/></g></g><g class="participant-lifeline" data-entity-uid="part2" data-qualified-name="Requester" data-source-line="4" id="part2-lifeline"><g><title>Requester</title><rect fill="#000000" fill-opacity="0.00000" height="926.8516" width="8" x="115.8911" y="118.5938"/><line style="stroke:#181818;stroke-width:0.5;stroke-dasharray:5,5;" x1="118.958" x2="118.958" y1="118.5938" y2="1045.4453"/></g></g><g class="participant-lifeline" data-entity-uid="part3" data-qualified-name="USDC" data-source-line="5" id="part3-lifeline"><g><title>USDC</title><rect fill="#000000" fill-opacity="0.00000" height="926.8516" width="8" x="349.8145" y="118.5938"/><line style="stroke:#181818;stroke-width:0.5;stroke-dasharray:5,5;" x1="352.9697" x2="352.9697" y1="118.5938" y2="1045.4453"/></g></g><g class="participant-lifeline" data-entity-uid="part4" data-qualified-name="AR" data-source-line="6" id="part4-lifeline"><g><title>AuditRegistry</title><rect fill="#000000" fill-opacity="0.00000" height="926.8516" width="8" x="686.3667" y="118.5938"/><line style="stroke:#181818;stroke-width:0.5;stroke-dasharray:5,5;" x1="690.0381" x2="690.0381" y1="118.5938" y2="1045.4453"/></g></g><g class="participant-lifeline" data-entity-uid="part5" data-qualified-name="RB" data-source-line="7" id="part5-lifeline"><g><title>ReputationBadge</title><rect fill="#000000" fill-opacity="0.00000" height="926.8516" width="8" x="955.729" y="118.5938"/><line style="stroke:#181818;stroke-width:0.5;stroke-dasharray:5,5;" x1="958.9507" x2="958.9507" y1="118.5938" y2="1045.4453"/></g></g><g class="participant-lifeline" data-entity-uid="part6" data-qualified-name="AE" data-source-line="8" id="part6-lifeline"><g><title>AuditEscrow</title><rect fill="#000000" fill-opacity="0.00000" height="926.8516" width="8" x="1083.6694" y="118.5938"/><line style="stroke:#181818;stroke-width:0.5;stroke-dasharray:5,5;" x1="1087.5073" x2="1087.5073" y1="118.5938" y2="1045.4453"/></g></g><g class="participant-lifeline" data-entity-uid="part7" data-qualified-name="T" data-source-line="9" id="part7-lifeline"><g><title>Treasury</title><rect fill="#000000" fill-opacity="0.00000" height="926.8516" width="8" x="1181.6855" y="118.5938"/><line style="stroke:#181818;stroke-width:0.5;stroke-dasharray:5,5;" x1="1184.8315" x2="1184.8315" y1="118.5938" y2="1045.4453"/></g></g><g class="participant participant-head" data-entity-uid="part1" data-qualified-name="Auditeur" data-source-line="3" id="part1-head"><text fill="#000000" font-family="sans-serif" font-size="14" lengthAdjust="spacing" textLength="59.958" x="5" y="115.292">Auditeur</text><ellipse cx="37.979" cy="50.7969" fill="#E2E2F0" rx="8" ry="8" style="stroke:#181818;stroke-width:0.5;"/><path d="M37.979,58.7969 L37.979,85.7969 M24.979,66.7969 L50.979,66.7969 M37.979,85.7969 L24.979,100.7969 M37.979,85.7969 L50.979,100.7969" fill="none" style="stroke:#181818;stroke-width:0.5;"/></g><g class="participant participant-tail" data-entity-uid="part1" data-qualified-name="Auditeur" data-source-line="3" id="part1-tail"><text fill="#000000" font-family="sans-serif" font-size="14" lengthAdjust="spacing" textLength="59.958" x="5" y="1057.4404">Auditeur</text><ellipse cx="37.979" cy="1069.2422" fill="#E2E2F0" rx="8" ry="8" style="stroke:#181818;stroke-width:0.5;"/><path d="M37.979,1077.2422 L37.979,1104.2422 M24.979,1085.2422 L50.979,1085.2422 M37.979,1104.2422 L24.979,1119.2422 M37.979,1104.2422 L50.979,1119.2422" fill="none" style="stroke:#181818;stroke-width:0.5;"/></g><g class="participant participant-head" data-entity-uid="part2" data-qualified-name="Requester" data-source-line="4" id="part2-head"><text fill="#000000" font-family="sans-serif" font-size="14" lengthAdjust="spacing" textLength="71.8662" x="80.958" y="115.292">Requester</text><ellipse cx="119.8911" cy="50.7969" fill="#E2E2F0" rx="8" ry="8" style="stroke:#181818;stroke-width:0.5;"/><path d="M119.8911,58.7969 L119.8911,85.7969 M106.8911,66.7969 L132.8911,66.7969 M119.8911,85.7969 L106.8911,100.7969 M119.8911,85.7969 L132.8911,100.7969" fill="none" style="stroke:#181818;stroke-width:0.5;"/></g><g class="participant participant-tail" data-entity-uid="part2" data-qualified-name="Requester" data-source-line="4" id="part2-tail"><text fill="#000000" font-family="sans-serif" font-size="14" lengthAdjust="spacing" textLength="71.8662" x="80.958" y="1057.4404">Requester</text><ellipse cx="119.8911" cy="1069.2422" fill="#E2E2F0" rx="8" ry="8" style="stroke:#181818;stroke-width:0.5;"/><path d="M119.8911,1077.2422 L119.8911,1104.2422 M106.8911,1085.2422 L132.8911,1085.2422 M119.8911,1104.2422 L106.8911,1119.2422 M119.8911,1104.2422 L132.8911,1119.2422" fill="none" style="stroke:#181818;stroke-width:0.5;"/></g><g class="participant participant-head" data-entity-uid="part3" data-qualified-name="USDC" data-source-line="5" id="part3-head"><rect fill="#E2E2F0" height="30.2969" rx="2.5" ry="2.5" style="stroke:#181818;stroke-width:0.5;" width="53.6895" x="326.9697" y="87.2969"/><text fill="#000000" font-family="sans-serif" font-size="14" lengthAdjust="spacing" textLength="39.6895" x="333.9697" y="107.292">USDC</text></g><g class="participant participant-tail" data-entity-uid="part3" data-qualified-name="USDC" data-source-line="5" id="part3-tail"><rect fill="#E2E2F0" height="30.2969" rx="2.5" ry="2.5" style="stroke:#181818;stroke-width:0.5;" width="53.6895" x="326.9697" y="1044.4453"/><text fill="#000000" font-family="sans-serif" font-size="14" lengthAdjust="spacing" textLength="39.6895" x="333.9697" y="1064.4404">USDC</text></g><g class="participant participant-head" data-entity-uid="part4" data-qualified-name="AR" data-source-line="6" id="part4-head"><rect fill="#E2E2F0" height="30.2969" rx="2.5" ry="2.5" style="stroke:#181818;stroke-width:0.5;" width="108.6572" x="636.0381" y="87.2969"/><text fill="#000000" font-family="sans-serif" font-size="14" lengthAdjust="spacing" textLength="94.6572" x="643.0381" y="107.292">AuditRegistry</text></g><g class="participant participant-tail" data-entity-uid="part4" data-qualified-name="AR" data-source-line="6" id="part4-tail"><rect fill="#E2E2F0" height="30.2969" rx="2.5" ry="2.5" style="stroke:#181818;stroke-width:0.5;" width="108.6572" x="636.0381" y="1044.4453"/><text fill="#000000" font-family="sans-serif" font-size="14" lengthAdjust="spacing" textLength="94.6572" x="643.0381" y="1064.4404">AuditRegistry</text></g><g class="participant participant-head" data-entity-uid="part5" data-qualified-name="RB" data-source-line="7" id="part5-head"><rect fill="#E2E2F0" height="30.2969" rx="2.5" ry="2.5" style="stroke:#181818;stroke-width:0.5;" width="135.5566" x="891.9507" y="87.2969"/><text fill="#000000" font-family="sans-serif" font-size="14" lengthAdjust="spacing" textLength="121.5566" x="898.9507" y="107.292">ReputationBadge</text></g><g class="participant participant-tail" data-entity-uid="part5" data-qualified-name="RB" data-source-line="7" id="part5-tail"><rect fill="#E2E2F0" height="30.2969" rx="2.5" ry="2.5" style="stroke:#181818;stroke-width:0.5;" width="135.5566" x="891.9507" y="1044.4453"/><text fill="#000000" font-family="sans-serif" font-size="14" lengthAdjust="spacing" textLength="121.5566" x="898.9507" y="1064.4404">ReputationBadge</text></g><g class="participant participant-head" data-entity-uid="part6" data-qualified-name="AE" data-source-line="8" id="part6-head"><rect fill="#E2E2F0" height="30.2969" rx="2.5" ry="2.5" style="stroke:#181818;stroke-width:0.5;" width="100.3242" x="1037.5073" y="87.2969"/><text fill="#000000" font-family="sans-serif" font-size="14" lengthAdjust="spacing" textLength="86.3242" x="1044.5073" y="107.292">AuditEscrow</text></g><g class="participant participant-tail" data-entity-uid="part6" data-qualified-name="AE" data-source-line="8" id="part6-tail"><rect fill="#E2E2F0" height="30.2969" rx="2.5" ry="2.5" style="stroke:#181818;stroke-width:0.5;" width="100.3242" x="1037.5073" y="1044.4453"/><text fill="#000000" font-family="sans-serif" font-size="14" lengthAdjust="spacing" textLength="86.3242" x="1044.5073" y="1064.4404">AuditEscrow</text></g><g class="participant participant-head" data-entity-uid="part7" data-qualified-name="T" data-source-line="9" id="part7-head"><rect fill="#E2E2F0" height="30.2969" rx="2.5" ry="2.5" style="stroke:#181818;stroke-width:0.5;" width="75.708" x="1147.8315" y="87.2969"/><text fill="#000000" font-family="sans-serif" font-size="14" lengthAdjust="spacing" textLength="61.708" x="1154.8315" y="107.292">Treasury</text></g><g class="participant participant-tail" data-entity-uid="part7" data-qualified-name="T" data-source-line="9" id="part7-tail"><rect fill="#E2E2F0" height="30.2969" rx="2.5" ry="2.5" style="stroke:#181818;stroke-width:0.5;" width="75.708" x="1147.8315" y="1044.4453"/><text fill="#000000" font-family="sans-serif" font-size="14" lengthAdjust="spacing" textLength="61.708" x="1154.8315" y="1064.4404">Treasury</text></g><rect fill="#EEEEEE" height="3" style="stroke:#EEEEEE;stroke-width:1;" width="1287" x="0" y="149.1602"/><line style="stroke:#000000;stroke-width:1;" x1="0" x2="1287" y1="149.1602" y2="149.1602"/><line style="stroke:#000000;stroke-width:1;" x1="0" x2="1287" y1="152.1602" y2="152.1602"/><rect fill="#EEEEEE" height="23.1328" style="stroke:#000000;stroke-width:2;" width="169.0225" x="558.9888" y="138.5938"/><text fill="#000000" font-family="sans-serif" font-size="13" font-weight="700" lengthAdjust="spacing" textLength="150.4966" x="564.9888" y="154.6606">Phase 1 : Inscription</text><g class="message" data-entity-1="part1" data-entity-2="part4" data-source-line="13" id="msg1"><polygon fill="#181818" points="678.3667,188.8594,688.3667,192.8594,678.3667,196.8594,682.3667,192.8594" style="stroke:#181818;stroke-width:1;"/><line style="stroke:#181818;stroke-width:1;" x1="37.979" x2="684.3667" y1="192.8594" y2="192.8594"/><text fill="#000000" font-family="sans-serif" font-size="13" lengthAdjust="spacing" textLength="232.5273" x="44.979" y="187.7935">registerAuditor(pseudo, specialties)</text></g><g class="message" data-entity-1="part4" data-entity-2="part5" data-source-line="14" id="msg2"><polygon fill="#181818" points="947.729,217.9922,957.729,221.9922,947.729,225.9922,951.729,221.9922" style="stroke:#181818;stroke-width:1;"/><line style="stroke:#181818;stroke-width:1;" x1="690.3667" x2="953.729" y1="221.9922" y2="221.9922"/><text fill="#000000" font-family="sans-serif" font-size="13" lengthAdjust="spacing" textLength="105.6187" x="697.3667" y="216.9263">mintNft(auditor)</text></g><g class="message" data-entity-1="part5" data-entity-2="part4" data-source-line="15" id="msg3"><polygon fill="#181818" points="701.3667,247.125,691.3667,251.125,701.3667,255.125,697.3667,251.125" style="stroke:#181818;stroke-width:1;"/><line style="stroke:#181818;stroke-width:1;stroke-dasharray:2,2;" x1="695.3667" x2="958.729" y1="251.125" y2="251.125"/><text fill="#000000" font-family="sans-serif" font-size="13" lengthAdjust="spacing" textLength="48.9023" x="707.3667" y="246.0591">tokenId</text></g><g class="message" data-entity-1="part4" data-entity-2="part1" data-source-line="16" id="msg4"><polygon fill="#181818" points="48.979,276.2578,38.979,280.2578,48.979,284.2578,44.979,280.2578" style="stroke:#181818;stroke-width:1;"/><line style="stroke:#181818;stroke-width:1;stroke-dasharray:2,2;" x1="42.979" x2="689.3667" y1="280.2578" y2="280.2578"/><text fill="#000000" font-family="sans-serif" font-size="13" lengthAdjust="spacing" textLength="151.252" x="54.979" y="275.1919">emit AuditorRegistered</text></g><rect fill="#EEEEEE" height="3" style="stroke:#EEEEEE;stroke-width:1;" width="1287" x="0" y="308.8242"/><line style="stroke:#000000;stroke-width:1;" x1="0" x2="1287" y1="308.8242" y2="308.8242"/><line style="stroke:#000000;stroke-width:1;" x1="0" x2="1287" y1="311.8242" y2="311.8242"/><rect fill="#EEEEEE" height="23.1328" style="stroke:#000000;stroke-width:2;" width="134.5166" x="576.2417" y="298.2578"/><text fill="#000000" font-family="sans-serif" font-size="13" font-weight="700" lengthAdjust="spacing" textLength="115.9907" x="582.2417" y="314.3247">Phase 2 : D&#233;p&#244;t</text><g class="message" data-entity-1="part2" data-entity-2="part3" data-source-line="20" id="msg5"><polygon fill="#181818" points="341.8145,348.5234,351.8145,352.5234,341.8145,356.5234,345.8145,352.5234" style="stroke:#181818;stroke-width:1;"/><line style="stroke:#181818;stroke-width:1;" x1="119.8911" x2="347.8145" y1="352.5234" y2="352.5234"/><text fill="#000000" font-family="sans-serif" font-size="13" lengthAdjust="spacing" textLength="209.9233" x="126.8911" y="347.4575">approve(AuditRegistry, amount)</text></g><g class="message" data-entity-1="part2" data-entity-2="part4" data-source-line="21" id="msg6"><polygon fill="#181818" points="678.3667,377.6563,688.3667,381.6563,678.3667,385.6563,682.3667,381.6563" style="stroke:#181818;stroke-width:1;"/><line style="stroke:#181818;stroke-width:1;" x1="119.8911" x2="684.3667" y1="381.6563" y2="381.6563"/><text fill="#000000" font-family="sans-serif" font-size="13" lengthAdjust="spacing" textLength="453.0767" x="126.8911" y="376.5903">depositAudit(auditor, contractAddr, CID, amount, guaranteeDuration)</text></g><g class="message" data-entity-1="part4" data-entity-2="part3" data-source-line="22" id="msg7"><polygon fill="#181818" points="364.8145,406.7891,354.8145,410.7891,364.8145,414.7891,360.8145,410.7891" style="stroke:#181818;stroke-width:1;"/><line style="stroke:#181818;stroke-width:1;" x1="358.8145" x2="689.3667" y1="410.7891" y2="410.7891"/><text fill="#000000" font-family="sans-serif" font-size="13" lengthAdjust="spacing" textLength="312.5522" x="370.8145" y="405.7231">transferFrom(requester, AuditRegistry, amount)</text></g><g class="message" data-entity-1="part4" data-entity-2="part3" data-source-line="23" id="msg8"><polygon fill="#181818" points="364.8145,435.9219,354.8145,439.9219,364.8145,443.9219,360.8145,439.9219" style="stroke:#181818;stroke-width:1;"/><line style="stroke:#181818;stroke-width:1;" x1="358.8145" x2="689.3667" y1="439.9219" y2="439.9219"/><text fill="#000000" font-family="sans-serif" font-size="13" lengthAdjust="spacing" textLength="144.8281" x="370.8145" y="434.856">transfer(treasury, 5%)</text></g><g class="message" data-entity-1="part4" data-entity-2="part3" data-source-line="24" id="msg9"><polygon fill="#181818" points="364.8145,465.0547,354.8145,469.0547,364.8145,473.0547,360.8145,469.0547" style="stroke:#181818;stroke-width:1;"/><line style="stroke:#181818;stroke-width:1;" x1="358.8145" x2="689.3667" y1="469.0547" y2="469.0547"/><text fill="#000000" font-family="sans-serif" font-size="13" lengthAdjust="spacing" textLength="144.4917" x="370.8145" y="463.9888">transfer(escrow, 95%)</text></g><g class="message" data-entity-1="part4" data-entity-2="part2" data-source-line="25" id="msg10"><polygon fill="#181818" points="130.8911,494.1875,120.8911,498.1875,130.8911,502.1875,126.8911,498.1875" style="stroke:#181818;stroke-width:1;"/><line style="stroke:#181818;stroke-width:1;stroke-dasharray:2,2;" x1="124.8911" x2="689.3667" y1="498.1875" y2="498.1875"/><text fill="#000000" font-family="sans-serif" font-size="13" lengthAdjust="spacing" textLength="133.542" x="136.8911" y="493.1216">emit AuditDeposited</text></g><rect fill="#EEEEEE" height="3" style="stroke:#EEEEEE;stroke-width:1;" width="1287" x="0" y="526.7539"/><line style="stroke:#000000;stroke-width:1;" x1="0" x2="1287" y1="526.7539" y2="526.7539"/><line style="stroke:#000000;stroke-width:1;" x1="0" x2="1287" y1="529.7539" y2="529.7539"/><rect fill="#EEEEEE" height="23.1328" style="stroke:#000000;stroke-width:2;" width="165.1377" x="560.9312" y="516.1875"/><text fill="#000000" font-family="sans-serif" font-size="13" font-weight="700" lengthAdjust="spacing" textLength="146.6118" x="566.9312" y="532.2544">Phase 3 : Validation</text><g class="message" data-entity-1="part1" data-entity-2="part4" data-source-line="29" id="msg11"><polygon fill="#181818" points="678.3667,566.4531,688.3667,570.4531,678.3667,574.4531,682.3667,570.4531" style="stroke:#181818;stroke-width:1;"/><line style="stroke:#181818;stroke-width:1;" x1="37.979" x2="684.3667" y1="570.4531" y2="570.4531"/><text fill="#000000" font-family="sans-serif" font-size="13" lengthAdjust="spacing" textLength="141.686" x="44.979" y="565.3872">validateAudit(auditId)</text></g><g class="message" data-entity-1="part4" data-entity-2="part5" data-source-line="30" id="msg12"><polygon fill="#181818" points="947.729,595.5859,957.729,599.5859,947.729,603.5859,951.729,599.5859" style="stroke:#181818;stroke-width:1;"/><line style="stroke:#181818;stroke-width:1;" x1="690.3667" x2="953.729" y1="599.5859" y2="599.5859"/><text fill="#000000" font-family="sans-serif" font-size="13" lengthAdjust="spacing" textLength="245.3623" x="697.3667" y="594.52">incAudits(tokenId, guaranteeAmount)</text></g><g class="message" data-entity-1="part4" data-entity-2="part6" data-source-line="31" id="msg13"><polygon fill="#181818" points="1075.6694,624.7188,1085.6694,628.7188,1075.6694,632.7188,1079.6694,628.7188" style="stroke:#181818;stroke-width:1;"/><line style="stroke:#181818;stroke-width:1;" x1="690.3667" x2="1081.6694" y1="628.7188" y2="628.7188"/><text fill="#000000" font-family="sans-serif" font-size="13" lengthAdjust="spacing" textLength="283.8164" x="697.3667" y="623.6528">lockFunds(auditId, auditor, requester, 95%)</text></g><path d="M1092,641.7188 L1092,681.7188 L1282,681.7188 L1282,651.7188 L1272,641.7188 L1092,641.7188" fill="#FEFFDD" style="stroke:#181818;stroke-width:0.5;"/><path d="M1272,641.7188 L1272,651.7188 L1282,651.7188 L1272,641.7188" fill="#FEFFDD" style="stroke:#181818;stroke-width:0.5;"/><text fill="#000000" font-family="sans-serif" font-size="13" lengthAdjust="spacing" textLength="169" x="1098" y="658.7856">immediateAmount = 70%</text><text fill="#000000" font-family="sans-serif" font-size="13" lengthAdjust="spacing" textLength="166.2388" x="1098" y="673.9185">guaranteeAmount = 30%</text><g class="message" data-entity-1="part4" data-entity-2="part1" data-source-line="33" id="msg14"><polygon fill="#181818" points="48.979,704.1172,38.979,708.1172,48.979,712.1172,44.979,708.1172" style="stroke:#181818;stroke-width:1;"/><line style="stroke:#181818;stroke-width:1;stroke-dasharray:2,2;" x1="42.979" x2="689.3667" y1="708.1172" y2="708.1172"/><text fill="#000000" font-family="sans-serif" font-size="13" lengthAdjust="spacing" textLength="129.2446" x="54.979" y="703.0513">emit AuditValidated</text></g><rect fill="#EEEEEE" height="3" style="stroke:#EEEEEE;stroke-width:1;" width="1287" x="0" y="736.6836"/><line style="stroke:#000000;stroke-width:1;" x1="0" x2="1287" y1="736.6836" y2="736.6836"/><line style="stroke:#000000;stroke-width:1;" x1="0" x2="1287" y1="739.6836" y2="739.6836"/><rect fill="#EEEEEE" height="23.1328" style="stroke:#000000;stroke-width:2;" width="335.7563" x="475.6218" y="726.1172"/><text fill="#000000" font-family="sans-serif" font-size="13" font-weight="700" lengthAdjust="spacing" textLength="317.2305" x="481.6218" y="742.1841">Phase 4 : R&#233;cup&#233;ration paiement imm&#233;diat</text><g class="message" data-entity-1="part1" data-entity-2="part4" data-source-line="37" id="msg15"><polygon fill="#181818" points="678.3667,776.3828,688.3667,780.3828,678.3667,784.3828,682.3667,780.3828" style="stroke:#181818;stroke-width:1;"/><line style="stroke:#181818;stroke-width:1;" x1="37.979" x2="684.3667" y1="780.3828" y2="780.3828"/><text fill="#000000" font-family="sans-serif" font-size="13" lengthAdjust="spacing" textLength="147.894" x="44.979" y="775.3169">claimPayment(auditId)</text></g><g class="message" data-entity-1="part4" data-entity-2="part6" data-source-line="38" id="msg16"><polygon fill="#181818" points="1075.6694,805.5156,1085.6694,809.5156,1075.6694,813.5156,1079.6694,809.5156" style="stroke:#181818;stroke-width:1;"/><line style="stroke:#181818;stroke-width:1;" x1="690.3667" x2="1081.6694" y1="809.5156" y2="809.5156"/><text fill="#000000" font-family="sans-serif" font-size="13" lengthAdjust="spacing" textLength="215.3125" x="697.3667" y="804.4497">releasePayment(auditId, auditor)</text></g><g class="message" data-entity-1="part6" data-entity-2="part3" data-source-line="39" id="msg17"><polygon fill="#181818" points="364.8145,834.6484,354.8145,838.6484,364.8145,842.6484,360.8145,838.6484" style="stroke:#181818;stroke-width:1;"/><line style="stroke:#181818;stroke-width:1;" x1="358.8145" x2="1086.6694" y1="838.6484" y2="838.6484"/><text fill="#000000" font-family="sans-serif" font-size="13" lengthAdjust="spacing" textLength="145.1074" x="370.8145" y="833.5825">transfer(auditor, 70%)</text></g><g class="message" data-entity-1="part6" data-entity-2="part4" data-source-line="40" id="msg18"><polygon fill="#181818" points="701.3667,863.7813,691.3667,867.7813,701.3667,871.7813,697.3667,867.7813" style="stroke:#181818;stroke-width:1;"/><line style="stroke:#181818;stroke-width:1;stroke-dasharray:2,2;" x1="695.3667" x2="1086.6694" y1="867.7813" y2="867.7813"/><text fill="#000000" font-family="sans-serif" font-size="13" lengthAdjust="spacing" textLength="150.6299" x="707.3667" y="862.7153">emit PaymentReleased</text></g><rect fill="#EEEEEE" height="3" style="stroke:#EEEEEE;stroke-width:1;" width="1287" x="0" y="896.3477"/><line style="stroke:#000000;stroke-width:1;" x1="0" x2="1287" y1="896.3477" y2="896.3477"/><line style="stroke:#000000;stroke-width:1;" x1="0" x2="1287" y1="899.3477" y2="899.3477"/><rect fill="#EEEEEE" height="23.1328" style="stroke:#000000;stroke-width:2;" width="419.9771" x="433.5115" y="885.7813"/><text fill="#000000" font-family="sans-serif" font-size="13" font-weight="700" lengthAdjust="spacing" textLength="401.4512" x="439.5115" y="901.8481">Phase 5 : R&#233;cup&#233;ration garantie (apr&#232;s guaranteeEnd)</text><g class="message" data-entity-1="part1" data-entity-2="part4" data-source-line="44" id="msg19"><polygon fill="#181818" points="678.3667,936.0469,688.3667,940.0469,678.3667,944.0469,682.3667,940.0469" style="stroke:#181818;stroke-width:1;"/><line style="stroke:#181818;stroke-width:1;" x1="37.979" x2="684.3667" y1="940.0469" y2="940.0469"/><text fill="#000000" font-family="sans-serif" font-size="13" lengthAdjust="spacing" textLength="159.3198" x="44.979" y="934.981">claimGuarantee(auditId)</text></g><g class="message" data-entity-1="part4" data-entity-2="part6" data-source-line="45" id="msg20"><polygon fill="#181818" points="1075.6694,965.1797,1085.6694,969.1797,1075.6694,973.1797,1079.6694,969.1797" style="stroke:#181818;stroke-width:1;"/><line style="stroke:#181818;stroke-width:1;" x1="690.3667" x2="1081.6694" y1="969.1797" y2="969.1797"/><text fill="#000000" font-family="sans-serif" font-size="13" lengthAdjust="spacing" textLength="226.7383" x="697.3667" y="964.1138">releaseGuarantee(auditId, auditor)</text></g><g class="message" data-entity-1="part6" data-entity-2="part3" data-source-line="46" id="msg21"><polygon fill="#181818" points="364.8145,994.3125,354.8145,998.3125,364.8145,1002.3125,360.8145,998.3125" style="stroke:#181818;stroke-width:1;"/><line style="stroke:#181818;stroke-width:1;" x1="358.8145" x2="1086.6694" y1="998.3125" y2="998.3125"/><text fill="#000000" font-family="sans-serif" font-size="13" lengthAdjust="spacing" textLength="145.1074" x="370.8145" y="993.2466">transfer(auditor, 30%)</text></g><g class="message" data-entity-1="part6" data-entity-2="part4" data-source-line="47" id="msg22"><polygon fill="#181818" points="701.3667,1023.4453,691.3667,1027.4453,701.3667,1031.4453,697.3667,1027.4453" style="stroke:#181818;stroke-width:1;"/><line style="stroke:#181818;stroke-width:1;stroke-dasharray:2,2;" x1="695.3667" x2="1086.6694" y1="1027.4453" y2="1027.4453"/><text fill="#000000" font-family="sans-serif" font-size="13" lengthAdjust="spacing" textLength="162.0557" x="707.3667" y="1022.3794">emit GuaranteeReleased</text></g><?plantuml-src ZLHBRjim5Dph50y13CY00gHrWw81NC2_5DuKWPfsrGqXFZj499Bb9qLsFKGFKUzx0zsa9-aJ9RgIOnlTINp3cJSpWfnm9SA2MT3CMYOT_Fdn4sQU2vVZLbXddk7EAASALIO9AvmoxHIzwLvp_ERHEZI9PiQ9GkY6vkBpf-NY0eYuUHYE1lG1Cyk7Y1orTym99UUCRp5WylaHbfKjZFhUSgo6ytk3pFfEu3v9fbEuUs0MuHNSm5hIHQ4R1PXEaoHwWiltj0m1J5WFJHWeasgBdgiChCP2iD89jEE4a8JFvuIlX7GVDovbBNwSqEbb97Fg4UMQ1tnp5iLk02lXeDF8EqdalMLV4sXPxtJzsuL5zsatoasqD6TQ6_M4wI3N35Ybl7JZuPMm3qUjh7017pVEe53I6UfqnZczBTRBI971rZD3eI8klGcrHE_T1dHFsWsQMwEgr4Iz34viTFHkwhh2ChWUdS9Ww3k3Tn7IvB_tryzpsNeSX3aXn1TM2ivE5__Kph4NpfeFgXQo24ERThtsyfaD7CvM12zLyNZh9RUHZ7A8aVUY2ewaSWX6R1ySg4rxNLGLSj4i5AXX2c-lHb_bWI8TJwv6Pp-mplWWa3U4oEjTuNMzQukb_u302ecHXEjTetmyfw9aehfZpmtsCAQmkC6I-iG3oDuyOLV76jvdGpPRJ5GCLZgwl2NlUxb-wMKRCX88ATEc_cN_zRIIV7p6ruU8E-Vi1UZ_lKsEUjiJHdT_0G00?></g></svg>