<svg xmlns="http://www.w3.org/2000/svg" xmlns:xlink="http://www.w3.org/1999/xlink" contentStyleType="text/css" data-diagram-type="DESCRIPTION" height="736px" preserveAspectRatio="none" style="width:1332px;height:736px;background:#FFFFFF;" version="1.1" viewBox="0 0 1332 736" width="1332px" zoomAndPan="magnify"><?plantuml 1.2026.3beta6?><defs/><g><g class="title" data-source-line="1"><text fill="#000000" font-family="sans-serif" font-size="14" font-weight="700" lengthAdjust="spacing" textLength="330.8525" x="497.2816" y="22.9951">Architecture fonctionnelle - AuditRegistry</text></g><!--cluster Pages--><g class="cluster" data-qualified-name="Pages" data-source-line="56" id="ent0005"><path d="M138.99,178.0969 L187.5476,178.0969 A3.75,3.75 0 0 1 190.0476,180.5969 L197.0476,200.3938 L719.99,200.3938 A2.5,2.5 0 0 1 722.49,202.8938 L722.49,262.8969 A2.5,2.5 0 0 1 719.99,265.3969 L138.99,265.3969 A2.5,2.5 0 0 1 136.49,262.8969 L136.49,180.5969 A2.5,2.5 0 0 1 138.99,178.0969" fill="#FEF9C3" style="stroke:#EAB308;stroke-width:1.5;"/><line style="stroke:#EAB308;stroke-width:1.5;" x1="136.49" x2="197.0476" y1="200.3938" y2="200.3938"/><text fill="#713F12" font-family="sans-serif" font-size="14" font-weight="700" lengthAdjust="spacing" textLength="47.5576" x="140.49" y="193.092">Pages</text></g><!--cluster Hooks lecture--><g class="cluster" data-qualified-name="Hooks lecture" data-source-line="66" id="ent0011"><path d="M138.99,304.5469 L249.1121,304.5469 A3.75,3.75 0 0 1 251.6121,307.0469 L258.6121,326.8438 L499.99,326.8438 A2.5,2.5 0 0 1 502.49,329.3438 L502.49,421.9369 A2.5,2.5 0 0 1 499.99,424.4369 L138.99,424.4369 A2.5,2.5 0 0 1 136.49,421.9369 L136.49,307.0469 A2.5,2.5 0 0 1 138.99,304.5469" fill="#DCFCE7" style="stroke:#22C55E;stroke-width:1.5;"/><line style="stroke:#22C55E;stroke-width:1.5;" x1="136.49" x2="258.6121" y1="326.8438" y2="326.8438"/><text fill="#14532D" font-family="sans-serif" font-size="14" font-weight="700" lengthAdjust="spacing" textLength="109.1221" x="140.49" y="319.542">Hooks lecture</text></g><!--cluster Hooks ?criture--><g class="cluster" data-qualified-name="Hooks .criture" data-source-line="70" id="ent0013"><path d="M528.99,320.8369 L646.0164,320.8369 A3.75,3.75 0 0 1 648.5164,323.3369 L655.5164,343.1338 L823.99,343.1338 A2.5,2.5 0 0 1 826.49,345.6338 L826.49,405.6369 A2.5,2.5 0 0 1 823.99,408.1369 L528.99,408.1369 A2.5,2.5 0 0 1 526.49,405.6369 L526.49,323.3369 A2.5,2.5 0 0 1 528.99,320.8369" fill="#FEE2E2" style="stroke:#EF4444;stroke-width:1.5;"/><line style="stroke:#EF4444;stroke-width:1.5;" x1="526.49" x2="655.5164" y1="343.1338" y2="343.1338"/><text fill="#7F1D1D" font-family="sans-serif" font-size="14" font-weight="700" lengthAdjust="spacing" textLength="116.0264" x="530.49" y="335.832">Hooks &#233;criture</text></g><!--cluster Smart Contracts--><g class="cluster" data-qualified-name="Smart Contracts" data-source-line="81" id="ent0017"><path d="M247.99,492.4369 L377.8064,492.4369 A3.75,3.75 0 0 1 380.3064,494.9369 L387.3064,514.7338 L1171.99,514.7338 A2.5,2.5 0 0 1 1174.49,517.2338 L1174.49,718.5269 A2.5,2.5 0 0 1 1171.99,721.0269 L247.99,721.0269 A2.5,2.5 0 0 1 245.49,718.5269 L245.49,494.9369 A2.5,2.5 0 0 1 247.99,492.4369" fill="#DBEAFE" style="stroke:#3B82F6;stroke-width:1.5;"/><line style="stroke:#3B82F6;stroke-width:1.5;" x1="245.49" x2="387.3064" y1="514.7338" y2="514.7338"/><text fill="#1E3A5F" font-family="sans-serif" font-size="14" font-weight="700" lengthAdjust="spacing" textLength="128.8164" x="249.49" y="507.432">Smart Contracts</text></g><!--entity PHome--><g class="entity" data-qualified-name="Pages.PHome" data-source-line="57" id="ent0006"><rect fill="#1F2937" height="36.2969" rx="2.5" ry="2.5" style="stroke:#4B5563;stroke-width:0.5;" width="70.2373" x="539.37" y="213.0969"/><text fill="#E5E7EB" font-family="sans-serif" font-size="14" lengthAdjust="spacing" textLength="50.2373" x="549.37" y="236.092">Accueil</text></g><!--entity PExplorer--><g class="entity" data-qualified-name="Pages.PExplorer" data-source-line="58" id="ent0007"><rect fill="#1F2937" height="36.2969" rx="2.5" ry="2.5" style="stroke:#4B5563;stroke-width:0.5;" width="101.5391" x="402.72" y="213.0969"/><text fill="#E5E7EB" font-family="sans-serif" font-size="14" lengthAdjust="spacing" textLength="81.5391" x="412.72" y="236.092">Explorateur</text></g><!--entity PDeposit--><g class="entity" data-qualified-name="Pages.PDeposit" data-source-line="59" id="ent0008"><rect fill="#1F2937" height="36.2969" rx="2.5" ry="2.5" style="stroke:#4B5563;stroke-width:0.5;" width="62.335" x="644.32" y="213.0969"/><text fill="#E5E7EB" font-family="sans-serif" font-size="14" lengthAdjust="spacing" textLength="42.335" x="654.32" y="236.092">D&#233;p&#244;t</text></g><!--entity PValidation--><g class="entity" data-qualified-name="Pages.PValidation" data-source-line="60" id="ent0009"><rect fill="#1F2937" height="36.2969" rx="2.5" ry="2.5" style="stroke:#4B5563;stroke-width:0.5;" width="90.2188" x="152.38" y="213.0969"/><text fill="#E5E7EB" font-family="sans-serif" font-size="14" lengthAdjust="spacing" textLength="70.2188" x="162.38" y="236.092">Validation</text></g><!--entity PInscription--><g class="entity" data-qualified-name="Pages.PInscription" data-source-line="61" id="ent0010"><rect fill="#1F2937" height="36.2969" rx="2.5" ry="2.5" style="stroke:#4B5563;stroke-width:0.5;" width="89.8838" x="277.55" y="213.0969"/><text fill="#E5E7EB" font-family="sans-serif" font-size="14" lengthAdjust="spacing" textLength="69.8838" x="287.55" y="236.092">Mon profil</text></g><!--entity HR--><g class="entity" data-qualified-name="Hooks lecture.HR" data-source-line="67" id="ent0012"><rect fill="#1F2937" height="68.8906" rx="2.5" ry="2.5" style="stroke:#4B5563;stroke-width:0.5;" width="333.5986" x="152.69" y="339.5469"/><text fill="#E5E7EB" font-family="sans-serif" font-size="14" lengthAdjust="spacing" textLength="296.0918" x="171.4434" y="362.542">useAuditors &#183; useAudits &#183; useProtocolStats</text><text fill="#E5E7EB" font-family="sans-serif" font-size="14" lengthAdjust="spacing" textLength="311.2334" x="163.8726" y="378.8389">useReputationBadge &#183; useAuditorSpecialties</text><text fill="#E5E7EB" font-family="sans-serif" font-size="14" lengthAdjust="spacing" textLength="313.5986" x="162.69" y="395.1357">usePaymentClaimed &#183; useGuaranteeClaimed</text></g><!--entity HW--><g class="entity" data-qualified-name="Hooks .criture.HW" data-source-line="71" id="ent0014"><rect fill="#1F2937" height="36.2969" rx="2.5" ry="2.5" style="stroke:#4B5563;stroke-width:0.5;" width="267.8027" x="542.59" y="355.8369"/><text fill="#E5E7EB" font-family="sans-serif" font-size="14" lengthAdjust="spacing" textLength="247.8027" x="552.59" y="378.832">useDepositAudit &#183; useAuditRegistry</text></g><!--entity Registry--><g class="entity" data-qualified-name="Smart Contracts.Registry" data-source-line="82" id="ent0018"><rect fill="#1F2937" height="36.2969" rx="2.5" ry="2.5" style="stroke:#4B5563;stroke-width:0.5;" width="114.6572" x="619.16" y="527.4369"/><text fill="#E5E7EB" font-family="sans-serif" font-size="14" lengthAdjust="spacing" textLength="94.6572" x="629.16" y="550.432">AuditRegistry</text></g><!--entity Escrow--><g class="entity" data-qualified-name="Smart Contracts.Escrow" data-source-line="83" id="ent0019"><rect fill="#1F2937" height="36.2969" rx="2.5" ry="2.5" style="stroke:#4B5563;stroke-width:0.5;" width="106.3242" x="440.33" y="668.7269"/><text fill="#E5E7EB" font-family="sans-serif" font-size="14" lengthAdjust="spacing" textLength="86.3242" x="450.33" y="691.722">AuditEscrow</text></g><!--entity Badge--><g class="entity" data-qualified-name="Smart Contracts.Badge" data-source-line="84" id="ent0020"><rect fill="#1F2937" height="36.2969" rx="2.5" ry="2.5" style="stroke:#4B5563;stroke-width:0.5;" width="141.5566" x="261.71" y="668.7269"/><text fill="#E5E7EB" font-family="sans-serif" font-size="14" lengthAdjust="spacing" textLength="121.5566" x="271.71" y="691.722">ReputationBadge</text></g><!--entity USDC--><g class="entity" data-qualified-name="Smart Contracts.USDC" data-source-line="85" id="ent0021"><rect fill="#1F2937" height="36.2969" rx="2.5" ry="2.5" style="stroke:#4B5563;stroke-width:0.5;" width="96.1387" x="1062.42" y="668.7269"/><text fill="#E5E7EB" font-family="sans-serif" font-size="14" lengthAdjust="spacing" textLength="76.1387" x="1072.42" y="691.722">MockUSDC</text></g><!--entity DAOC--><g class="entity" data-qualified-name="Smart Contracts.DAOC" data-source-line="86" id="ent0022"><rect fill="#1F2937" height="36.2969" rx="2.5" ry="2.5" style="stroke:#4B5563;stroke-width:0.5;" width="133.1074" x="740.94" y="668.7269"/><text fill="#E5E7EB" font-family="sans-serif" font-size="14" lengthAdjust="spacing" textLength="113.1074" x="750.94" y="691.722">MockDAOVoting</text></g><!--entity Treasury--><g class="entity" data-qualified-name="Smart Contracts.Treasury" data-source-line="87" id="ent0023"><rect fill="#1F2937" height="36.2969" rx="2.5" ry="2.5" style="stroke:#4B5563;stroke-width:0.5;" width="118.1572" x="909.41" y="668.7269"/><text fill="#E5E7EB" font-family="sans-serif" font-size="14" lengthAdjust="spacing" textLength="98.1572" x="919.41" y="691.722">MockTreasury</text></g><!--entity A--><g class="entity" data-qualified-name="A" data-source-line="50" id="ent0002"><ellipse cx="383.489" cy="51.2969" fill="#1F2937" rx="8" ry="8" style="stroke:#4B5563;stroke-width:0.5;"/><path d="M383.489,59.2969 L383.489,86.2969 M370.489,67.2969 L396.489,67.2969 M383.489,86.2969 L370.489,101.2969 M383.489,86.2969 L396.489,101.2969" fill="none" style="stroke:#4B5563;stroke-width:0.5;"/><text fill="#E5E7EB" font-family="sans-serif" font-size="14" lengthAdjust="spacing" textLength="59.958" x="353.51" y="115.792">Auditeur</text></g><!--entity D--><g class="entity" data-qualified-name="D" data-source-line="51" id="ent0003"><ellipse cx="840.4862" cy="51.2969" fill="#1F2937" rx="8" ry="8" style="stroke:#4B5563;stroke-width:0.5;"/><path d="M840.4862,59.2969 L840.4862,86.2969 M827.4862,67.2969 L853.4862,67.2969 M840.4862,86.2969 L827.4862,101.2969 M840.4862,86.2969 L853.4862,101.2969" fill="none" style="stroke:#4B5563;stroke-width:0.5;"/><text fill="#E5E7EB" font-family="sans-serif" font-size="14" lengthAdjust="spacing" textLength="82.6123" x="799.18" y="115.792">Demandeur</text></g><!--entity DAO--><g class="entity" data-qualified-name="DAO" data-source-line="52" id="ent0004"><ellipse cx="1206.4885" cy="515.9369" fill="#1F2937" rx="8" ry="8" style="stroke:#4B5563;stroke-width:0.5;"/><path d="M1206.4885,523.9369 L1206.4885,550.9369 M1193.4885,531.9369 L1219.4885,531.9369 M1206.4885,550.9369 L1193.4885,565.9369 M1206.4885,550.9369 L1219.4885,565.9369" fill="none" style="stroke:#4B5563;stroke-width:0.5;"/><text fill="#E5E7EB" font-family="sans-serif" font-size="14" lengthAdjust="spacing" textLength="31.377" x="1190.8" y="580.432">DAO</text></g><!--entity Wallet--><g class="entity" data-qualified-name="Wallet" data-source-line="76" id="ent0015"><rect fill="#1F2937" height="52.5938" rx="2.5" ry="2.5" style="stroke:#4B5563;stroke-width:0.5;" width="149.5205" x="851.73" y="204.9469"/><text fill="#E5E7EB" font-family="sans-serif" font-size="14" lengthAdjust="spacing" textLength="97.5898" x="877.6953" y="227.942">Reown AppKit</text><text fill="#E5E7EB" font-family="sans-serif" font-size="14" lengthAdjust="spacing" textLength="129.5205" x="861.73" y="244.2389">(connexion wallet)</text></g><!--entity IPFS--><g class="entity" data-qualified-name="IPFS" data-source-line="77" id="ent0016"><rect fill="#1F2937" height="36.2969" rx="2.5" ry="2.5" style="stroke:#4B5563;stroke-width:0.5;" width="106.9805" x="7" y="213.0969"/><text fill="#E5E7EB" font-family="sans-serif" font-size="14" lengthAdjust="spacing" textLength="86.9805" x="17" y="236.092">IPFS / Pinata</text></g><!--link A to PHome--><g class="link" data-entity-1="ent0002" data-entity-2="ent0006" data-link-type="dependency" data-source-line="92" id="lnk24"><path d="M413.96,98.1169 C443.09,114.3169 487.49,140.9669 521.49,170.0969 C536.5,182.9569 547.424,195.3619 557.514,208.0419" fill="none" id="A-to-PHome" style="stroke:#6B7280;stroke-width:1;"/><polygon fill="#6B7280" points="561.25,212.7369,558.776,203.2038,558.1367,208.8244,552.5161,208.1851,561.25,212.7369" style="stroke:#6B7280;stroke-width:1;"/><text fill="#9CA3AF" font-family="sans-serif" font-size="10" lengthAdjust="spacing" textLength="42.3535" x="511.49" y="159.3791">consulte</text></g><!--link A to PValidation--><g class="link" data-entity-1="ent0002" data-entity-2="ent0009" data-link-type="dependency" data-source-line="93" id="lnk25"><path d="M353.06,85.4869 C315.03,91.5869 250.68,107.6869 215.49,149.0969 C200.35,166.9069 197.2567,188.6777 196.9667,206.6677" fill="none" id="A-to-PValidation" style="stroke:#6B7280;stroke-width:1;"/><polygon fill="#6B7280" points="196.87,212.6669,201.0145,203.7325,196.9506,207.6675,193.0156,203.6036,196.87,212.6669" style="stroke:#6B7280;stroke-width:1;"/><text fill="#9CA3AF" font-family="sans-serif" font-size="10" lengthAdjust="spacing" textLength="80.2002" x="216.49" y="159.3791">valide &#183; r&#233;clame</text></g><!--link A to PInscription--><g class="link" data-entity-1="ent0002" data-entity-2="ent0010" data-link-type="dependency" data-source-line="94" id="lnk26"><path d="M353.23,100.2969 C336.98,112.0069 318.48,128.7969 309.49,149.0969 C300.36,169.7069 305.2245,190.2149 311.9945,207.1649" fill="none" id="A-to-PInscription" style="stroke:#6B7280;stroke-width:1;"/><polygon fill="#6B7280" points="314.22,212.7369,314.5964,202.8952,312.3654,208.0935,307.1671,205.8626,314.22,212.7369" style="stroke:#6B7280;stroke-width:1;"/><text fill="#9CA3AF" font-family="sans-serif" font-size="10" lengthAdjust="spacing" textLength="99.7754" x="310.49" y="159.3791">s'inscrit &#183; met &#224; jour</text></g><!--link A to PExplorer--><g class="link" data-entity-1="ent0002" data-entity-2="ent0007" data-link-type="dependency" data-source-line="95" id="lnk27"><path d="M401.15,119.3669 C415.33,149.3969 432.0193,184.7608 442.7793,207.5608" fill="none" id="A-to-PExplorer" style="stroke:#6B7280;stroke-width:1;"/><polygon fill="#6B7280" points="445.34,212.9869,445.1163,203.1406,443.206,208.4651,437.8815,206.5549,445.34,212.9869" style="stroke:#6B7280;stroke-width:1;"/><text fill="#9CA3AF" font-family="sans-serif" font-size="10" lengthAdjust="spacing" textLength="42.3535" x="421.49" y="159.3791">consulte</text></g><!--link A to IPFS--><g class="link" data-entity-1="ent0002" data-entity-2="ent0016" data-link-type="dependency" data-source-line="96" id="lnk28"><path d="M353.35,82.1469 C299.51,83.9469 185.43,94.4669 110.49,149.0969 C88.43,165.1769 76.2563,188.6752 68.8163,207.2952" fill="none" id="A-to-IPFS" style="stroke:#6B7280;stroke-width:1;"/><polygon fill="#6B7280" points="66.59,212.8669,73.6439,205.9935,68.4452,208.2238,66.215,203.0252,66.59,212.8669" style="stroke:#6B7280;stroke-width:1;"/><text fill="#9CA3AF" font-family="sans-serif" font-size="10" lengthAdjust="spacing" textLength="88.7012" x="111.49" y="159.3791">d&#233;pose le rapport</text></g><!--link D to PHome--><g class="link" data-entity-1="ent0003" data-entity-2="ent0006" data-link-type="dependency" data-source-line="98" id="lnk29"><path d="M813.11,119.2469 C799.04,135.4069 780.44,152.7369 759.49,162.0969 C732.46,174.1769 653.03,156.9769 626.49,170.0969 C607.8,179.3369 596.2586,193.5143 587.3186,207.7643" fill="none" id="D-to-PHome" style="stroke:#6B7280;stroke-width:1;"/><polygon fill="#6B7280" points="584.13,212.8469,592.3013,207.3488,586.7872,208.6114,585.5246,203.0973,584.13,212.8469" style="stroke:#6B7280;stroke-width:1;"/><text fill="#9CA3AF" font-family="sans-serif" font-size="10" lengthAdjust="spacing" textLength="42.3535" x="781.49" y="159.3791">consulte</text></g><!--link D to PDeposit--><g class="link" data-entity-1="ent0003" data-entity-2="ent0008" data-link-type="dependency" data-source-line="99" id="lnk30"><path d="M850.81,119.2369 C852.65,133.7069 851.81,149.7369 843.49,162.0969 C835.47,174.0069 759.1722,201.6109 712.7722,217.6109" fill="none" id="D-to-PDeposit" style="stroke:#6B7280;stroke-width:1;"/><polygon fill="#6B7280" points="707.1,219.5669,716.9123,220.4145,711.8269,217.9369,714.3044,212.8515,707.1,219.5669" style="stroke:#6B7280;stroke-width:1;"/><text fill="#9CA3AF" font-family="sans-serif" font-size="10" lengthAdjust="spacing" textLength="113.2422" x="849.49" y="159.3791">d&#233;pose un audit + CID</text></g><!--link D to PExplorer--><g class="link" data-entity-1="ent0003" data-entity-2="ent0007" data-link-type="dependency" data-source-line="100" id="lnk31"><path d="M798.88,95.1869 C744.79,112.1069 647.21,141.6569 562.49,162.0969 C544.44,166.4469 538.14,161.8769 521.49,170.0969 C500.57,180.4169 485.1761,194.4947 472.4861,208.2647" fill="none" id="D-to-PExplorer" style="stroke:#6B7280;stroke-width:1;"/><polygon fill="#6B7280" points="468.42,212.6769,477.4606,208.7694,471.8084,209.0001,471.5777,203.3479,468.42,212.6769" style="stroke:#6B7280;stroke-width:1;"/><text fill="#9CA3AF" font-family="sans-serif" font-size="10" lengthAdjust="spacing" textLength="42.3535" x="608.49" y="159.3791">consulte</text></g><!--link A to Wallet--><g class="link" data-entity-1="ent0002" data-entity-2="ent0015" data-link-type="dependency" data-source-line="102" id="lnk32"><path d="M413.93,88.4869 C465.02,99.6469 571.11,123.6669 659.49,149.0969 C677.05,154.1469 681.07,156.5869 698.49,162.0969 C749.31,178.1569 801.0434,193.6454 845.5934,206.7354" fill="none" id="A-to-Wallet" style="stroke:#6B7280;stroke-width:1;"/><polygon fill="#6B7280" points="851.35,208.4269,843.8427,202.0519,846.5528,207.0173,841.5874,209.7275,851.35,208.4269" style="stroke:#6B7280;stroke-width:1;"/><text fill="#9CA3AF" font-family="sans-serif" font-size="10" lengthAdjust="spacing" textLength="51.5967" x="699.49" y="159.3791">connexion</text></g><!--link D to Wallet--><g class="link" data-entity-1="ent0003" data-entity-2="ent0015" data-link-type="dependency" data-source-line="103" id="lnk33"><path d="M882.24,86.9269 C919.78,93.8669 972.84,110.3169 998.49,149.0969 C1011.79,169.2069 998.669,185.9947 977.349,201.2547" fill="none" id="D-to-Wallet" style="stroke:#6B7280;stroke-width:1;"/><polygon fill="#6B7280" points="972.47,204.7469,982.1166,202.7613,976.5358,201.8367,977.4604,196.2559,972.47,204.7469" style="stroke:#6B7280;stroke-width:1;"/><text fill="#9CA3AF" font-family="sans-serif" font-size="10" lengthAdjust="spacing" textLength="51.5967" x="1003.49" y="159.3791">connexion</text></g><!--link DAO to DAOC--><g class="link" data-entity-1="ent0004" data-entity-2="ent0022" data-link-type="dependency" data-source-line="105" id="lnk34"><path d="M1199.57,584.1169 C1193.99,603.5269 1184.04,625.7969 1166.49,638.7269 C1117,675.1969 952.23,659.2369 891.49,668.7269 C885.9,669.6069 886.0237,669.5263 880.2337,670.5763" fill="none" id="DAO-to-DAOC" style="stroke:#6B7280;stroke-width:1;"/><polygon fill="#6B7280" points="874.33,671.6469,883.8993,673.9767,879.2498,670.7547,882.4718,666.1051,874.33,671.6469" style="stroke:#6B7280;stroke-width:1;"/><text fill="#9CA3AF" font-family="sans-serif" font-size="10" lengthAdjust="spacing" textLength="29.9121" x="1187.49" y="630.0091">vote()</text></g><!--link DAOC to Registry--><g class="link" data-entity-1="ent0022" data-entity-2="ent0018" data-link-type="dependency" data-source-line="106" id="lnk35"><path d="M816.31,668.4969 C822.83,652.9769 828.93,630.2169 818.49,613.7269 C799.96,584.4669 770.6033,569.4859 739.9433,560.0259" fill="none" id="DAOC-to-Registry" style="stroke:#6B7280;stroke-width:1;"/><polygon fill="#6B7280" points="734.21,558.2569,741.6306,564.7325,738.9877,559.731,743.9893,557.0881,734.21,558.2569" style="stroke:#6B7280;stroke-width:1;"/><text fill="#9CA3AF" font-family="sans-serif" font-size="10" lengthAdjust="spacing" textLength="84.5654" x="824.49" y="630.0091">resolveIncident()</text></g><!--link Registry to DAOC--><g class="link" data-entity-1="ent0018" data-entity-2="ent0022" data-link-type="dependency" data-source-line="133" id="lnk52"><path d="M669.02,563.9869 C661.73,583.9669 653.81,616.8069 669.49,638.7269 C685.84,661.5869 708.1041,672.1358 734.7141,678.2858" fill="none" id="Registry-to-DAOC" style="stroke:#6B7280;stroke-width:1;"/><polygon fill="#6B7280" points="740.56,679.6369,732.6919,673.713,735.6884,678.511,730.8904,681.5075,740.56,679.6369" style="stroke:#6B7280;stroke-width:1;"/><text fill="#9CA3AF" font-family="sans-serif" font-size="10" lengthAdjust="spacing" textLength="139.8193" x="670.49" y="630.0091">createIncident &#183; hasIncident</text></g><!--link PHome to HR--><g class="link" data-entity-1="ent0006" data-entity-2="ent0012" data-link-type="dependency" data-source-line="110" id="lnk36"><path d="M553.8,249.8869 C544.28,257.5769 532.65,266.4069 521.49,273.3969 C482.05,298.0769 441.0615,318.799 402.6815,336.629" fill="none" id="PHome-to-HR" style="stroke:#6B7280;stroke-width:1;"/><polygon fill="#6B7280" points="397.24,339.1569,407.0875,338.9926,401.7746,337.0503,403.7169,331.7373,397.24,339.1569" style="stroke:#6B7280;stroke-width:1;"/></g><!--link PExplorer to HR--><g class="link" data-entity-1="ent0007" data-entity-2="ent0012" data-link-type="dependency" data-source-line="111" id="lnk37"><path d="M436.79,249.7869 C415.6,272.0369 382.7371,306.5613 355.9471,334.7013" fill="none" id="PExplorer-to-HR" style="stroke:#6B7280;stroke-width:1;"/><polygon fill="#6B7280" points="351.81,339.0469,360.9127,335.2866,355.2576,335.4255,355.1186,329.7704,351.81,339.0469" style="stroke:#6B7280;stroke-width:1;"/></g><!--link PDeposit to HR--><g class="link" data-entity-1="ent0008" data-entity-2="ent0012" data-link-type="dependency" data-source-line="112" id="lnk38"><path d="M659.2,249.7269 C650.53,258.0569 639.25,267.4669 627.49,273.3969 C586.37,294.1269 570.63,283.3969 526.49,296.5469 C485.55,308.7369 446.6129,322.6605 409.3629,336.9305" fill="none" id="PDeposit-to-HR" style="stroke:#6B7280;stroke-width:1;"/><polygon fill="#6B7280" points="403.76,339.0769,413.5953,339.5925,408.4291,337.2882,410.7335,332.122,403.76,339.0769" style="stroke:#6B7280;stroke-width:1;"/></g><!--link PDeposit to HW--><g class="link" data-entity-1="ent0008" data-entity-2="ent0014" data-link-type="dependency" data-source-line="113" id="lnk39"><path d="M675.61,249.7869 C675.81,276.9069 676.1377,322.687 676.3277,349.667" fill="none" id="PDeposit-to-HW" style="stroke:#6B7280;stroke-width:1;"/><polygon fill="#6B7280" points="676.37,355.6669,680.3065,346.6389,676.3348,350.667,672.3067,346.6953,676.37,355.6669" style="stroke:#6B7280;stroke-width:1;"/></g><!--link PValidation to HR--><g class="link" data-entity-1="ent0009" data-entity-2="ent0012" data-link-type="dependency" data-source-line="114" id="lnk40"><path d="M212.69,249.7869 C231.99,272.0369 261.7393,306.3737 286.1393,334.5137" fill="none" id="PValidation-to-HR" style="stroke:#6B7280;stroke-width:1;"/><polygon fill="#6B7280" points="290.07,339.0469,287.1961,329.6267,286.7944,335.2692,281.1519,334.8676,290.07,339.0469" style="stroke:#6B7280;stroke-width:1;"/></g><!--link PValidation to HW--><g class="link" data-entity-1="ent0009" data-entity-2="ent0014" data-link-type="dependency" data-source-line="115" id="lnk41"><path d="M218.56,249.7269 C230.19,258.3769 245.33,268.0769 260.49,273.3969 C362.46,309.1169 397.93,269.3269 502.49,296.5469 C554.54,310.0869 605.5485,334.5673 639.5885,352.6073" fill="none" id="PValidation-to-HW" style="stroke:#6B7280;stroke-width:1;"/><polygon fill="#6B7280" points="644.89,355.4169,638.8108,347.6681,640.4721,353.0755,635.0647,354.7368,644.89,355.4169" style="stroke:#6B7280;stroke-width:1;"/></g><!--link PInscription to HR--><g class="link" data-entity-1="ent0010" data-entity-2="ent0012" data-link-type="dependency" data-source-line="116" id="lnk42"><path d="M322.12,249.7869 C321.64,272.0369 320.9379,304.9082 320.3379,333.0482" fill="none" id="PInscription-to-HR" style="stroke:#6B7280;stroke-width:1;"/><polygon fill="#6B7280" points="320.21,339.0469,324.4009,330.1342,320.3166,334.048,316.4028,329.9637,320.21,339.0469" style="stroke:#6B7280;stroke-width:1;"/></g><!--link PInscription to HW--><g class="link" data-entity-1="ent0010" data-entity-2="ent0014" data-link-type="dependency" data-source-line="117" id="lnk43"><path d="M343.53,249.7869 C355.16,258.4569 370.3,268.1569 385.49,273.3969 C455.07,297.3869 481.12,262.9469 550.49,287.5469 C592.84,302.5569 629.9947,331.3557 653.2047,351.6657" fill="none" id="PInscription-to-HW" style="stroke:#6B7280;stroke-width:1;"/><polygon fill="#6B7280" points="657.72,355.6169,653.5811,346.6799,653.9572,352.3242,648.3129,352.7004,657.72,355.6169" style="stroke:#6B7280;stroke-width:1;"/></g><!--link HR to Registry--><g class="link" data-entity-1="ent0012" data-entity-2="ent0018" data-link-type="dependency" data-source-line="121" id="lnk44"><path d="M365.46,408.7169 C396.1,430.1169 437.87,457.2769 477.49,476.4369 C523.35,498.6069 572.5675,515.1413 613.1075,527.1613" fill="none" id="HR-to-Registry" style="stroke:#6B7280;stroke-width:1;"/><polygon fill="#6B7280" points="618.86,528.8669,611.3684,522.4735,614.0663,527.4455,609.0942,530.1435,618.86,528.8669" style="stroke:#6B7280;stroke-width:1;"/><text fill="#9CA3AF" font-family="sans-serif" font-size="10" lengthAdjust="spacing" textLength="189.126" x="478.49" y="462.2191">getContractEvents &#183; useReadContract</text></g><!--link HR to Badge--><g class="link" data-entity-1="ent0012" data-entity-2="ent0020" data-link-type="dependency" data-source-line="122" id="lnk45"><path d="M201.32,408.8569 C164.81,425.4769 128.66,449.6769 107.49,484.4369 C84.53,522.1269 84.64,545.9769 107.49,583.7269 C139.86,637.2269 202.4534,661.5687 255.4034,673.7787" fill="none" id="HR-to-Badge" style="stroke:#6B7280;stroke-width:1;"/><polygon fill="#6B7280" points="261.25,675.1269,253.3789,669.2069,256.3779,674.0034,251.5814,677.0023,261.25,675.1269" style="stroke:#6B7280;stroke-width:1;"/><text fill="#9CA3AF" font-family="sans-serif" font-size="10" lengthAdjust="spacing" textLength="86.2939" x="108.49" y="549.3591">useReadContract</text></g><!--link HR to Escrow--><g class="link" data-entity-1="ent0012" data-entity-2="ent0019" data-link-type="dependency" data-source-line="123" id="lnk46"><path d="M306.76,408.6669 C288.55,463.1869 262.63,571.4469 314.49,638.7269 C316.48,641.3169 382.2495,658.1603 434.2795,671.1803" fill="none" id="HR-to-Escrow" style="stroke:#6B7280;stroke-width:1;"/><polygon fill="#6B7280" points="440.1,672.6369,432.3402,666.5717,435.2496,671.4231,430.3982,674.3324,440.1,672.6369" style="stroke:#6B7280;stroke-width:1;"/><text fill="#9CA3AF" font-family="sans-serif" font-size="10" lengthAdjust="spacing" textLength="93.2959" x="289.49" y="549.3591">getContractEvents</text></g><!--link HW to USDC--><g class="link" data-entity-1="ent0014" data-entity-2="ent0021" data-link-type="dependency" data-source-line="125" id="lnk47"><path d="M810.81,381.9669 C959.78,392.8469 1186.21,419.7969 1239.49,484.4369 C1283.29,537.5669 1270.66,586.7569 1225.49,638.7269 C1208.5,658.2769 1187.928,668.1702 1164.748,674.9602" fill="none" id="HW-to-USDC" style="stroke:#6B7280;stroke-width:1;"/><polygon fill="#6B7280" points="1158.99,676.6469,1168.7515,677.9556,1163.7884,675.2413,1166.5026,670.2782,1158.99,676.6469" style="stroke:#6B7280;stroke-width:1;"/><text fill="#9CA3AF" font-family="sans-serif" font-size="10" lengthAdjust="spacing" textLength="48.9258" x="1267.49" y="549.3591">approve()</text></g><!--link HW to Registry--><g class="link" data-entity-1="ent0014" data-entity-2="ent0018" data-link-type="dependency" data-source-line="126" id="lnk48"><path d="M676.49,392.4969 C676.49,425.0769 676.49,488.6569 676.49,521.1669" fill="none" id="HW-to-Registry" style="stroke:#6B7280;stroke-width:1;"/><polygon fill="#6B7280" points="676.49,527.1669,680.49,518.1669,676.49,522.1669,672.49,518.1669,676.49,527.1669" style="stroke:#6B7280;stroke-width:1;"/><text fill="#9CA3AF" font-family="sans-serif" font-size="10" lengthAdjust="spacing" textLength="139.0137" x="695.0339" y="450.7191">depositAudit &#183; validateAudit</text><text fill="#9CA3AF" font-family="sans-serif" font-size="10" lengthAdjust="spacing" textLength="160.6299" x="684.2258" y="462.3597">claimPayment &#183; claimGuarantee</text><text fill="#9CA3AF" font-family="sans-serif" font-size="10" lengthAdjust="spacing" textLength="174.1016" x="677.49" y="474.0004">registerAuditor &#183; updateSpecialties</text></g><!--link Registry to Badge--><g class="link" data-entity-1="ent0018" data-entity-2="ent0020" data-link-type="dependency" data-source-line="130" id="lnk49"><path d="M618.8,549.2269 C530.24,554.6269 367.24,570.3469 331.49,613.7269 C319.06,628.8069 320.5939,646.5122 324.9039,662.5622" fill="none" id="Registry-to-Badge" style="stroke:#6B7280;stroke-width:1;"/><polygon fill="#6B7280" points="326.46,668.3569,327.989,658.6274,325.1633,663.528,320.2627,660.7022,326.46,668.3569" style="stroke:#6B7280;stroke-width:1;"/><text fill="#9CA3AF" font-family="sans-serif" font-size="10" lengthAdjust="spacing" textLength="156.8262" x="332.49" y="630.0091">mintNft &#183; incAudits &#183; incExploits</text></g><!--link Registry to Escrow--><g class="link" data-entity-1="ent0018" data-entity-2="ent0019" data-link-type="dependency" data-source-line="131" id="lnk50"><path d="M619,555.9569 C582.81,564.8169 537.91,581.7569 510.49,613.7269 C497.42,628.9669 494.236,646.4328 493.526,662.4328" fill="none" id="Registry-to-Escrow" style="stroke:#6B7280;stroke-width:1;"/><polygon fill="#6B7280" points="493.26,668.4269,497.655,659.613,493.4817,663.4318,489.6629,659.2584,493.26,668.4269" style="stroke:#6B7280;stroke-width:1;"/><text fill="#9CA3AF" font-family="sans-serif" font-size="10" lengthAdjust="spacing" textLength="140.6201" x="511.49" y="624.0091">lockFunds &#183; releasePayment</text><text fill="#9CA3AF" font-family="sans-serif" font-size="10" lengthAdjust="spacing" textLength="132.0459" x="515.7771" y="635.6497">releaseGuarantee &#183; refund</text></g><!--link Registry to USDC--><g class="link" data-entity-1="ent0018" data-entity-2="ent0021" data-link-type="dependency" data-source-line="132" id="lnk51"><path d="M734.27,549.9469 C803.94,555.7969 923.3,571.5769 1016.49,613.7269 C1046.29,627.2069 1070.9699,647.6656 1088.6999,664.3456" fill="none" id="Registry-to-USDC" style="stroke:#6B7280;stroke-width:1;"/><polygon fill="#6B7280" points="1093.07,668.4569,1089.2557,659.3766,1089.4283,665.0308,1083.7741,665.2034,1093.07,668.4569" style="stroke:#6B7280;stroke-width:1;"/><text fill="#9CA3AF" font-family="sans-serif" font-size="10" lengthAdjust="spacing" textLength="65.2148" x="1055.49" y="630.0091">transferFrom</text></g><!--link Registry to Treasury--><g class="link" data-entity-1="ent0018" data-entity-2="ent0023" data-link-type="dependency" data-source-line="134" id="lnk53"><path d="M734.23,551.6569 C786.21,558.6269 862.63,575.0869 917.49,613.7269 C937.31,627.6869 949.364,646.5519 957.774,663.0419" fill="none" id="Registry-to-Treasury" style="stroke:#6B7280;stroke-width:1;"/><polygon fill="#6B7280" points="960.5,668.3869,959.9744,658.5521,958.2283,663.9327,952.8477,662.1867,960.5,668.3869" style="stroke:#6B7280;stroke-width:1;"/><text fill="#9CA3AF" font-family="sans-serif" font-size="10" lengthAdjust="spacing" textLength="66.3379" x="941.49" y="630.0091">transfer (5%)</text></g><?plantuml-src tLVDRkCs4BxhAGWNnMvG11lPSVwm223RKXCisZNixVgI2okD7JOIAL2KaxGeq5CVeEW3zBht0hqtRz8dwP0IPKgszzH34oC8pE776SuFlnahfb8WWOnlcO9ObHB8Kl1OCS4vfBXrI88oOMe6ArOe-UXvIkH42VAzK4fa964I3DgxPGcGGe44eHvpy8exndCgQKPYaUM20rTpzOWQzG7ALwaBIM19orHzW0SLf6p5CqIJ6F-1tAM8_EGHCgBntKgAaYTZaGf9ll2Z_ldW57SYmLKj2uVXQJZIQ24JaBNqU3GSdWoydntTEMgZAzYZsVVF-XtDv-DW44HTpOFJOt_exzByzkqK_nUNbxjDH65qFXwqJPpwWyZlTqs4mMXmTBRRn9KGTyLidut9E1g77JVyu-6WF-dQwFV7ms7u6HkB_Nw4_R3VyIFo9_wMZJ0wnizk6_FnNXz6OH257H_2GJ3SJiNeh1-TjFJJME7EVryyL4fnR_JMc9FHQV_iQ4_1QDcS_GZ4Fq8jtYlop--_u1y9OWMbBEhbS__pl2hQFSCVw5YF45gGm8eda56U63cA9uquU8z0yz7YuBqJ8FE0NaXuR90ix_ICSptIfeaDu_M2E2w1fRqcDjChaK4R4pxaM6fq4-rf9K4MRU4cJv_ofp-L3RH1JY0N1LDju4UQieHgVk_Li8saZVn6S99BiQnkg97Nl8WbomtKBNF37oyrYvLpQTLATJPRZEp4gop0F0o13_xlluXTsiLK2YLYaSuLLSKDHyaCybAPm8zeWgQSGqBESuWPJHM32ZobZxg5ZbFACaXgxDSbaXMsLAZ5vk5TpNHoElT_-eIPQtcmsEb1NJFc4kw5xBHGMLYqqXy-O5Fdy69Oped83CGz9q6UlsFgXh-EzGprW0aZznH7ANLWmh4mtzrZrzDeJjwGAUDKqUPDkXyyfa5E5ESPbGgx3LSIYVEvFIUdu3gEw89hch_BVksoCY5fPj9jP8ZK8-vxDdZLiethl2UJ6_EjoslntNVpoTZbIhtUHc6l-YWKuwjUqxjse3v8e4LP-Q1HThrx4lZrjxhflVa_lnlF2z2PmyFBgYVPI5sWxxp0iHus-vlseVVNUcMeJ2Bbf3Hpa4xxG6JnYfcrePaC57dwW_mWIhd1sqwtnx9vP9kR9TW1HG54_nwXUIwayhn9rmb7JRDNKvwZekI46WByYeol9nkalP2ZfRbDHGALWOeZcdCxjZmi9REdIwfsO2qKl3xmZ4HlsSTmWR-l2f6kuPh765kk4BGrGM5PFUikx7cjGjF-OnzhbO2LsNnzLhRmMeLfSLionBbbQN5RiiNsk8CXhqZk6PBrrQnLObXzAr2MiiCr5faTMsP04xjXZrNZYYdQFOYAdWrYIp5QNnYG9jswzl71Ih7MvL_lEJTBEYF9kifXDPVSy5YFFlLqfBVDkXcCRhWqca3MSvLnAzVddGdBIMwJKbGdWK3vG9vFMfkeELcw81dZwjkb2GxZyMOenOLvNxXidwopTq5IR6yH_g8sS0afDZOxYEh0cdKJwWgpH7XRcvDcZ2mlbY0ZAR8soE716FkdQiXEQxsbXLssJzbMwwWchuTV7lmB?></g></svg>