<svg xmlns="http://www.w3.org/2000/svg" xmlns:xlink="http://www.w3.org/1999/xlink" contentStyleType="text/css" data-diagram-type="SEQUENCE" height="2259px" preserveAspectRatio="none" style="width:1598px;height:2259px;background:#FFFFFF;" version="1.1" viewBox="0 0 1598 2259" width="1598px" zoomAndPan="magnify"><?plantuml 1.2026.3beta6?><defs/><g><g class="title" data-source-line="1"><text fill="#000000" font-family="sans-serif" font-size="14" font-weight="700" lengthAdjust="spacing" textLength="339.6299" x="626.1584" y="27.9951">Flux principaux du protocole AuditRegistry</text></g><g class="participant-lifeline" data-entity-uid="part1" data-qualified-name="A" data-source-line="3" id="part1-lifeline"><g><title>Auditeur</title><rect fill="#000000" fill-opacity="0.00000" height="2058.2891" width="8" x="139.979" y="118.5938"/><line style="stroke:#181818;stroke-width:0.5;stroke-dasharray:5,5;" x1="143" x2="143" y1="118.5938" y2="2176.8828"/></g></g><g class="participant-lifeline" data-entity-uid="part2" data-qualified-name="D" data-source-line="4" id="part2-lifeline"><g><title>Demandeur</title><rect fill="#000000" fill-opacity="0.00000" height="2058.2891" width="8" x="227.2642" y="118.5938"/><line style="stroke:#181818;stroke-width:0.5;stroke-dasharray:5,5;" x1="230.958" x2="230.958" y1="118.5938" y2="2176.8828"/></g></g><g class="participant-lifeline" data-entity-uid="part3" data-qualified-name="DAO" data-source-line="5" id="part3-lifeline"><g><title>DAO</title><rect fill="#000000" fill-opacity="0.00000" height="2058.2891" width="8" x="300.2588" y="118.5938"/><line style="stroke:#181818;stroke-width:0.5;stroke-dasharray:5,5;" x1="303.5703" x2="303.5703" y1="118.5938" y2="2176.8828"/></g></g><g class="participant-lifeline" data-entity-uid="part4" data-qualified-name="R" data-source-line="6" id="part4-lifeline"><g><title>AuditRegistry</title><rect fill="#000000" fill-opacity="0.00000" height="2058.2891" width="8" x="799.2891" y="118.5938"/><line style="stroke:#181818;stroke-width:0.5;stroke-dasharray:5,5;" x1="802.9604" x2="802.9604" y1="118.5938" y2="2176.8828"/></g></g><g class="participant-lifeline" data-entity-uid="part5" data-qualified-name="B" data-source-line="7" id="part5-lifeline"><g><title>ReputationBadge</title><rect fill="#000000" fill-opacity="0.00000" height="2058.2891" width="8" x="1000.6235" y="118.5938"/><line style="stroke:#181818;stroke-width:0.5;stroke-dasharray:5,5;" x1="1003.8452" x2="1003.8452" y1="118.5938" y2="2176.8828"/></g></g><g class="participant-lifeline" data-entity-uid="part6" data-qualified-name="E" data-source-line="8" id="part6-lifeline"><g><title>AuditEscrow</title><rect fill="#000000" fill-opacity="0.00000" height="2058.2891" width="8" x="1144.0107" y="118.5938"/><line style="stroke:#181818;stroke-width:0.5;stroke-dasharray:5,5;" x1="1147.8486" x2="1147.8486" y1="118.5938" y2="2176.8828"/></g></g><g class="participant-lifeline" data-entity-uid="part7" data-qualified-name="U" data-source-line="9" id="part7-lifeline"><g><title>USDC</title><rect fill="#000000" fill-opacity="0.00000" height="2058.2891" width="8" x="1370.7358" y="118.5938"/><line style="stroke:#181818;stroke-width:0.5;stroke-dasharray:5,5;" x1="1373.8911" x2="1373.8911" y1="118.5938" y2="2176.8828"/></g></g><g class="participant-lifeline" data-entity-uid="part8" data-qualified-name="T" data-source-line="10" id="part8-lifeline"><g><title>Treasury</title><rect fill="#000000" fill-opacity="0.00000" height="2058.2891" width="8" x="1445.4346" y="118.5938"/><line style="stroke:#181818;stroke-width:0.5;stroke-dasharray:5,5;" x1="1448.5806" x2="1448.5806" y1="118.5938" y2="2176.8828"/></g></g><g class="participant-lifeline" data-entity-uid="part9" data-qualified-name="V" data-source-line="11" id="part9-lifeline"><g><title>DAOVoting</title><rect fill="#000000" fill-opacity="0.00000" height="2058.2891" width="8" x="1538.6177" y="118.5938"/><line style="stroke:#181818;stroke-width:0.5;stroke-dasharray:5,5;" x1="1542.2886" x2="1542.2886" y1="118.5938" y2="2176.8828"/></g></g><g class="participant participant-head" data-entity-uid="part1" data-qualified-name="A" data-source-line="3" id="part1-head"><text fill="#000000" font-family="sans-serif" font-size="14" lengthAdjust="spacing" textLength="59.958" x="111" y="115.292">Auditeur</text><ellipse cx="143.979" cy="50.7969" fill="#E2E2F0" rx="8" ry="8" style="stroke:#181818;stroke-width:0.5;"/><path d="M143.979,58.7969 L143.979,85.7969 M130.979,66.7969 L156.979,66.7969 M143.979,85.7969 L130.979,100.7969 M143.979,85.7969 L156.979,100.7969" fill="none" style="stroke:#181818;stroke-width:0.5;"/></g><g class="participant participant-tail" data-entity-uid="part1" data-qualified-name="A" data-source-line="3" id="part1-tail"><text fill="#000000" font-family="sans-serif" font-size="14" lengthAdjust="spacing" textLength="59.958" x="111" y="2188.8779">Auditeur</text><ellipse cx="143.979" cy="2200.6797" fill="#E2E2F0" rx="8" ry="8" style="stroke:#181818;stroke-width:0.5;"/><path d="M143.979,2208.6797 L143.979,2235.6797 M130.979,2216.6797 L156.979,2216.6797 M143.979,2235.6797 L130.979,2250.6797 M143.979,2235.6797 L156.979,2250.6797" fill="none" style="stroke:#181818;stroke-width:0.5;"/></g><g class="participant participant-head" data-entity-uid="part2" data-qualified-name="D" data-source-line="4" id="part2-head"><text fill="#000000" font-family="sans-serif" font-size="14" lengthAdjust="spacing" textLength="82.6123" x="186.958" y="115.292">Demandeur</text><ellipse cx="231.2642" cy="50.7969" fill="#E2E2F0" rx="8" ry="8" style="stroke:#181818;stroke-width:0.5;"/><path d="M231.2642,58.7969 L231.2642,85.7969 M218.2642,66.7969 L244.2642,66.7969 M231.2642,85.7969 L218.2642,100.7969 M231.2642,85.7969 L244.2642,100.7969" fill="none" style="stroke:#181818;stroke-width:0.5;"/></g><g class="participant participant-tail" data-entity-uid="part2" data-qualified-name="D" data-source-line="4" id="part2-tail"><text fill="#000000" font-family="sans-serif" font-size="14" lengthAdjust="spacing" textLength="82.6123" x="186.958" y="2188.8779">Demandeur</text><ellipse cx="231.2642" cy="2200.6797" fill="#E2E2F0" rx="8" ry="8" style="stroke:#181818;stroke-width:0.5;"/><path d="M231.2642,2208.6797 L231.2642,2235.6797 M218.2642,2216.6797 L244.2642,2216.6797 M231.2642,2235.6797 L218.2642,2250.6797 M231.2642,2235.6797 L244.2642,2250.6797" fill="none" style="stroke:#181818;stroke-width:0.5;"/></g><g class="participant participant-head" data-entity-uid="part3" data-qualified-name="DAO" data-source-line="5" id="part3-head"><text fill="#000000" font-family="sans-serif" font-size="14" lengthAdjust="spacing" textLength="31.377" x="285.5703" y="115.292">DAO</text><ellipse cx="304.2588" cy="50.7969" fill="#E2E2F0" rx="8" ry="8" style="stroke:#181818;stroke-width:0.5;"/><path d="M304.2588,58.7969 L304.2588,85.7969 M291.2588,66.7969 L317.2588,66.7969 M304.2588,85.7969 L291.2588,100.7969 M304.2588,85.7969 L317.2588,100.7969" fill="none" style="stroke:#181818;stroke-width:0.5;"/></g><g class="participant participant-tail" data-entity-uid="part3" data-qualified-name="DAO" data-source-line="5" id="part3-tail"><text fill="#000000" font-family="sans-serif" font-size="14" lengthAdjust="spacing" textLength="31.377" x="285.5703" y="2188.8779">DAO</text><ellipse cx="304.2588" cy="2200.6797" fill="#E2E2F0" rx="8" ry="8" style="stroke:#181818;stroke-width:0.5;"/><path d="M304.2588,2208.6797 L304.2588,2235.6797 M291.2588,2216.6797 L317.2588,2216.6797 M304.2588,2235.6797 L291.2588,2250.6797 M304.2588,2235.6797 L317.2588,2250.6797" fill="none" style="stroke:#181818;stroke-width:0.5;"/></g><g class="participant participant-head" data-entity-uid="part4" data-qualified-name="R" data-source-line="6" id="part4-head"><rect fill="#E2E2F0" height="30.2969" rx="2.5" ry="2.5" style="stroke:#181818;stroke-width:0.5;" width="108.6572" x="748.9604" y="87.2969"/><text fill="#000000" font-family="sans-serif" font-size="14" lengthAdjust="spacing" textLength="94.6572" x="755.9604" y="107.292">AuditRegistry</text></g><g class="participant participant-tail" data-entity-uid="part4" data-qualified-name="R" data-source-line="6" id="part4-tail"><rect fill="#E2E2F0" height="30.2969" rx="2.5" ry="2.5" style="stroke:#181818;stroke-width:0.5;" width="108.6572" x="748.9604" y="2175.8828"/><text fill="#000000" font-family="sans-serif" font-size="14" lengthAdjust="spacing" textLength="94.6572" x="755.9604" y="2195.8779">AuditRegistry</text></g><g class="participant participant-head" data-entity-uid="part5" data-qualified-name="B" data-source-line="7" id="part5-head"><rect fill="#E2E2F0" height="30.2969" rx="2.5" ry="2.5" style="stroke:#181818;stroke-width:0.5;" width="135.5566" x="936.8452" y="87.2969"/><text fill="#000000" font-family="sans-serif" font-size="14" lengthAdjust="spacing" textLength="121.5566" x="943.8452" y="107.292">ReputationBadge</text></g><g class="participant participant-tail" data-entity-uid="part5" data-qualified-name="B" data-source-line="7" id="part5-tail"><rect fill="#E2E2F0" height="30.2969" rx="2.5" ry="2.5" style="stroke:#181818;stroke-width:0.5;" width="135.5566" x="936.8452" y="2175.8828"/><text fill="#000000" font-family="sans-serif" font-size="14" lengthAdjust="spacing" textLength="121.5566" x="943.8452" y="2195.8779">ReputationBadge</text></g><g class="participant participant-head" data-entity-uid="part6" data-qualified-name="E" data-source-line="8" id="part6-head"><rect fill="#E2E2F0" height="30.2969" rx="2.5" ry="2.5" style="stroke:#181818;stroke-width:0.5;" width="100.3242" x="1097.8486" y="87.2969"/><text fill="#000000" font-family="sans-serif" font-size="14" lengthAdjust="spacing" textLength="86.3242" x="1104.8486" y="107.292">AuditEscrow</text></g><g class="participant participant-tail" data-entity-uid="part6" data-qualified-name="E" data-source-line="8" id="part6-tail"><rect fill="#E2E2F0" height="30.2969" rx="2.5" ry="2.5" style="stroke:#181818;stroke-width:0.5;" width="100.3242" x="1097.8486" y="2175.8828"/><text fill="#000000" font-family="sans-serif" font-size="14" lengthAdjust="spacing" textLength="86.3242" x="1104.8486" y="2195.8779">AuditEscrow</text></g><g class="participant participant-head" data-entity-uid="part7" data-qualified-name="U" data-source-line="9" id="part7-head"><rect fill="#E2E2F0" height="30.2969" rx="2.5" ry="2.5" style="stroke:#181818;stroke-width:0.5;" width="53.6895" x="1347.8911" y="87.2969"/><text fill="#000000" font-family="sans-serif" font-size="14" lengthAdjust="spacing" textLength="39.6895" x="1354.8911" y="107.292">USDC</text></g><g class="participant participant-tail" data-entity-uid="part7" data-qualified-name="U" data-source-line="9" id="part7-tail"><rect fill="#E2E2F0" height="30.2969" rx="2.5" ry="2.5" style="stroke:#181818;stroke-width:0.5;" width="53.6895" x="1347.8911" y="2175.8828"/><text fill="#000000" font-family="sans-serif" font-size="14" lengthAdjust="spacing" textLength="39.6895" x="1354.8911" y="2195.8779">USDC</text></g><g class="participant participant-head" data-entity-uid="part8" data-qualified-name="T" data-source-line="10" id="part8-head"><rect fill="#E2E2F0" height="30.2969" rx="2.5" ry="2.5" style="stroke:#181818;stroke-width:0.5;" width="75.708" x="1411.5806" y="87.2969"/><text fill="#000000" font-family="sans-serif" font-size="14" lengthAdjust="spacing" textLength="61.708" x="1418.5806" y="107.292">Treasury</text></g><g class="participant participant-tail" data-entity-uid="part8" data-qualified-name="T" data-source-line="10" id="part8-tail"><rect fill="#E2E2F0" height="30.2969" rx="2.5" ry="2.5" style="stroke:#181818;stroke-width:0.5;" width="75.708" x="1411.5806" y="2175.8828"/><text fill="#000000" font-family="sans-serif" font-size="14" lengthAdjust="spacing" textLength="61.708" x="1418.5806" y="2195.8779">Treasury</text></g><g class="participant participant-head" data-entity-uid="part9" data-qualified-name="V" data-source-line="11" id="part9-head"><rect fill="#E2E2F0" height="30.2969" rx="2.5" ry="2.5" style="stroke:#181818;stroke-width:0.5;" width="90.6582" x="1497.2886" y="87.2969"/><text fill="#000000" font-family="sans-serif" font-size="14" lengthAdjust="spacing" textLength="76.6582" x="1504.2886" y="107.292">DAOVoting</text></g><g class="participant participant-tail" data-entity-uid="part9" data-qualified-name="V" data-source-line="11" id="part9-tail"><rect fill="#E2E2F0" height="30.2969" rx="2.5" ry="2.5" style="stroke:#181818;stroke-width:0.5;" width="90.6582" x="1497.2886" y="2175.8828"/><text fill="#000000" font-family="sans-serif" font-size="14" lengthAdjust="spacing" textLength="76.6582" x="1504.2886" y="2195.8779">DAOVoting</text></g><rect fill="#EEEEEE" height="3" style="stroke:#EEEEEE;stroke-width:1;" width="1592.9468" x="0" y="149.1602"/><line style="stroke:#000000;stroke-width:1;" x1="0" x2="1592.9468" y1="149.1602" y2="149.1602"/><line style="stroke:#000000;stroke-width:1;" x1="0" x2="1592.9468" y1="152.1602" y2="152.1602"/><rect fill="#EEEEEE" height="23.1328" style="stroke:#000000;stroke-width:2;" width="122.5449" x="735.2009" y="138.5938"/><text fill="#000000" font-family="sans-serif" font-size="13" font-weight="700" lengthAdjust="spacing" textLength="104.019" x="741.2009" y="154.6606">Inscription (1)</text><g class="message" data-entity-1="part1" data-entity-2="part4" data-source-line="15" id="msg1"><polygon fill="#181818" points="791.2891,188.8594,801.2891,192.8594,791.2891,196.8594,795.2891,192.8594" style="stroke:#181818;stroke-width:1;"/><line style="stroke:#181818;stroke-width:1;" x1="143.979" x2="797.2891" y1="192.8594" y2="192.8594"/><text fill="#000000" font-family="sans-serif" font-size="13" lengthAdjust="spacing" textLength="232.5273" x="150.979" y="187.7935">registerAuditor(pseudo, specialties)</text></g><g class="message" data-entity-1="part4" data-entity-2="part5" data-source-line="16" id="msg2"><polygon fill="#181818" points="992.6235,217.9922,1002.6235,221.9922,992.6235,225.9922,996.6235,221.9922" style="stroke:#181818;stroke-width:1;"/><line style="stroke:#181818;stroke-width:1;" x1="803.2891" x2="998.6235" y1="221.9922" y2="221.9922"/><text fill="#000000" font-family="sans-serif" font-size="13" lengthAdjust="spacing" textLength="105.6187" x="810.2891" y="216.9263">mintNft(auditor)</text></g><g class="message" data-entity-1="part5" data-entity-2="part1" data-source-line="17" id="msg3"><polygon fill="#181818" points="154.979,247.125,144.979,251.125,154.979,255.125,150.979,251.125" style="stroke:#181818;stroke-width:1;"/><line style="stroke:#181818;stroke-width:1;stroke-dasharray:2,2;" x1="148.979" x2="1003.6235" y1="251.125" y2="251.125"/><text fill="#000000" font-family="sans-serif" font-size="13" lengthAdjust="spacing" textLength="207.4478" x="160.979" y="246.0591">ERC721 token #N  (soul-bound)</text></g><g class="message" data-entity-1="part4" data-entity-2="part1" data-source-line="18" id="msg4"><polygon fill="#181818" points="154.979,276.2578,144.979,280.2578,154.979,284.2578,150.979,280.2578" style="stroke:#181818;stroke-width:1;"/><line style="stroke:#181818;stroke-width:1;stroke-dasharray:2,2;" x1="148.979" x2="802.2891" y1="280.2578" y2="280.2578"/><text fill="#000000" font-family="sans-serif" font-size="13" lengthAdjust="spacing" textLength="174.8145" x="160.979" y="275.1919">&#171;event&#187; AuditorRegistered</text></g><rect fill="#EEEEEE" height="3" style="stroke:#EEEEEE;stroke-width:1;" width="1592.9468" x="0" y="308.8242"/><line style="stroke:#000000;stroke-width:1;" x1="0" x2="1592.9468" y1="308.8242" y2="308.8242"/><line style="stroke:#000000;stroke-width:1;" x1="0" x2="1592.9468" y1="311.8242" y2="311.8242"/><rect fill="#EEEEEE" height="23.1328" style="stroke:#000000;stroke-width:2;" width="304.3989" x="644.2739" y="298.2578"/><text fill="#000000" font-family="sans-serif" font-size="13" font-weight="700" lengthAdjust="spacing" textLength="285.873" x="650.2739" y="314.3247">Recherche auditeur - N&#233;gociation (2-3)</text><rect fill="#EEEEEE" height="3" style="stroke:#EEEEEE;stroke-width:1;" width="1592.9468" x="0" y="351.957"/><line style="stroke:#000000;stroke-width:1;" x1="0" x2="1592.9468" y1="351.957" y2="351.957"/><line style="stroke:#000000;stroke-width:1;" x1="0" x2="1592.9468" y1="354.957" y2="354.957"/><rect fill="#EEEEEE" height="23.1328" style="stroke:#000000;stroke-width:2;" width="166.8896" x="713.0286" y="341.3906"/><text fill="#000000" font-family="sans-serif" font-size="13" font-weight="700" lengthAdjust="spacing" textLength="148.3638" x="719.0286" y="357.4575">D&#233;p&#244;t d'un audit (4)</text><g class="message" data-entity-1="part2" data-entity-2="part7" data-source-line="24" id="msg5"><polygon fill="#181818" points="1362.7358,391.6563,1372.7358,395.6563,1362.7358,399.6563,1366.7358,395.6563" style="stroke:#181818;stroke-width:1;"/><line style="stroke:#181818;stroke-width:1;" x1="231.2642" x2="1368.7358" y1="395.6563" y2="395.6563"/><text fill="#000000" font-family="sans-serif" font-size="13" lengthAdjust="spacing" textLength="196.0537" x="238.2642" y="390.5903">approve(registry, 1000 USDC)</text></g><g class="message" data-entity-1="part2" data-entity-2="part4" data-source-line="25" id="msg6"><polygon fill="#181818" points="791.2891,420.7891,801.2891,424.7891,791.2891,428.7891,795.2891,424.7891" style="stroke:#181818;stroke-width:1;"/><line style="stroke:#181818;stroke-width:1;" x1="231.2642" x2="797.2891" y1="424.7891" y2="424.7891"/><text fill="#000000" font-family="sans-serif" font-size="13" lengthAdjust="spacing" textLength="548.0249" x="238.2642" y="419.7231">depositAudit(auditor, contractAddr, reportCID, 1000 USDC, guaranteeDuration=90j)</text></g><g class="message" data-entity-1="part4" data-entity-2="part7" data-source-line="26" id="msg7"><polygon fill="#181818" points="1362.7358,449.9219,1372.7358,453.9219,1362.7358,457.9219,1366.7358,453.9219" style="stroke:#181818;stroke-width:1;"/><line style="stroke:#181818;stroke-width:1;" x1="803.2891" x2="1368.7358" y1="453.9219" y2="453.9219"/><text fill="#000000" font-family="sans-serif" font-size="13" lengthAdjust="spacing" textLength="312.3999" x="810.2891" y="448.856">transferFrom(requester =&gt; treasury,  50 USDC)</text></g><g class="message" data-entity-1="part4" data-entity-2="part7" data-source-line="27" id="msg8"><polygon fill="#181818" points="1362.7358,479.0547,1372.7358,483.0547,1362.7358,487.0547,1366.7358,483.0547" style="stroke:#181818;stroke-width:1;"/><line style="stroke:#181818;stroke-width:1;" x1="803.2891" x2="1368.7358" y1="483.0547" y2="483.0547"/><text fill="#000000" font-family="sans-serif" font-size="13" lengthAdjust="spacing" textLength="316.1958" x="810.2891" y="477.9888">transferFrom(requester =&gt; escrow,   950 USDC)</text></g><g class="message" data-entity-1="part4" data-entity-2="part2" data-source-line="28" id="msg9"><polygon fill="#181818" points="242.2642,508.1875,232.2642,512.1875,242.2642,516.1875,238.2642,512.1875" style="stroke:#181818;stroke-width:1;"/><line style="stroke:#181818;stroke-width:1;stroke-dasharray:2,2;" x1="236.2642" x2="802.2891" y1="512.1875" y2="512.1875"/><text fill="#000000" font-family="sans-serif" font-size="13" lengthAdjust="spacing" textLength="231.6641" x="248.2642" y="507.1216">&#171;event&#187; AuditDeposited(auditId=1)</text></g><rect fill="#EEEEEE" height="3" style="stroke:#EEEEEE;stroke-width:1;" width="1592.9468" x="0" y="540.7539"/><line style="stroke:#000000;stroke-width:1;" x1="0" x2="1592.9468" y1="540.7539" y2="540.7539"/><line style="stroke:#000000;stroke-width:1;" x1="0" x2="1592.9468" y1="543.7539" y2="543.7539"/><rect fill="#EEEEEE" height="23.1328" style="stroke:#000000;stroke-width:2;" width="402.5146" x="595.2161" y="530.1875"/><text fill="#000000" font-family="sans-serif" font-size="13" font-weight="700" lengthAdjust="spacing" textLength="383.9888" x="601.2161" y="546.2544">D&#233;finition de l'adresse du contrat audit&#233; (optionnel)</text><g class="message" data-entity-1="part1" data-entity-2="part4" data-source-line="32" id="msg10"><polygon fill="#181818" points="791.2891,580.4531,801.2891,584.4531,791.2891,588.4531,795.2891,584.4531" style="stroke:#181818;stroke-width:1;"/><line style="stroke:#181818;stroke-width:1;" x1="143.979" x2="797.2891" y1="584.4531" y2="584.4531"/><text fill="#000000" font-family="sans-serif" font-size="13" lengthAdjust="spacing" textLength="345.979" x="150.979" y="579.3872">setAuditedContractAddress(auditId=1, contractAddr)</text></g><g class="message" data-entity-1="part4" data-entity-2="part1" data-source-line="33" id="msg11"><polygon fill="#181818" points="154.979,609.5859,144.979,613.5859,154.979,617.5859,150.979,613.5859" style="stroke:#181818;stroke-width:1;"/><line style="stroke:#181818;stroke-width:1;stroke-dasharray:2,2;" x1="148.979" x2="802.2891" y1="613.5859" y2="613.5859"/><text fill="#000000" font-family="sans-serif" font-size="13" lengthAdjust="spacing" textLength="236.9644" x="160.979" y="608.52">&#171;event&#187; AuditedContractAddressSet</text></g><rect fill="#EEEEEE" height="3" style="stroke:#EEEEEE;stroke-width:1;" width="1592.9468" x="0" y="642.1523"/><line style="stroke:#000000;stroke-width:1;" x1="0" x2="1592.9468" y1="642.1523" y2="642.1523"/><line style="stroke:#000000;stroke-width:1;" x1="0" x2="1592.9468" y1="645.1523" y2="645.1523"/><rect fill="#EEEEEE" height="23.1328" style="stroke:#000000;stroke-width:2;" width="127.4326" x="732.7571" y="631.5859"/><text fill="#000000" font-family="sans-serif" font-size="13" font-weight="700" lengthAdjust="spacing" textLength="108.9067" x="738.7571" y="647.6528">Validation (5a)</text><g class="message" data-entity-1="part1" data-entity-2="part4" data-source-line="37" id="msg12"><polygon fill="#181818" points="791.2891,681.8516,801.2891,685.8516,791.2891,689.8516,795.2891,685.8516" style="stroke:#181818;stroke-width:1;"/><line style="stroke:#181818;stroke-width:1;" x1="143.979" x2="797.2891" y1="685.8516" y2="685.8516"/><text fill="#000000" font-family="sans-serif" font-size="13" lengthAdjust="spacing" textLength="160.8496" x="150.979" y="680.7856">validateAudit(auditId=1)</text></g><g class="message" data-entity-1="part4" data-entity-2="part6" data-source-line="38" id="msg13"><polygon fill="#181818" points="1136.0107,710.9844,1146.0107,714.9844,1136.0107,718.9844,1140.0107,714.9844" style="stroke:#181818;stroke-width:1;"/><line style="stroke:#181818;stroke-width:1;" x1="803.2891" x2="1142.0107" y1="714.9844" y2="714.9844"/><text fill="#000000" font-family="sans-serif" font-size="13" lengthAdjust="spacing" textLength="320.7217" x="810.2891" y="709.9185">lockFunds(auditId, auditor, requester, 950 USDC)</text></g><path d="M1153,727.9844 L1153,782.9844 L1427,782.9844 L1427,737.9844 L1417,727.9844 L1153,727.9844" fill="#FEFFDD" style="stroke:#181818;stroke-width:0.5;"/><path d="M1417,727.9844 L1417,737.9844 L1427,737.9844 L1417,727.9844" fill="#FEFFDD" style="stroke:#181818;stroke-width:0.5;"/><text fill="#000000" font-family="sans-serif" font-size="13" lengthAdjust="spacing" textLength="129.4922" x="1159" y="745.0513">Ventilation interne :</text><text fill="#000000" font-family="sans-serif" font-size="13" lengthAdjust="spacing" textLength="253.208" x="1159" y="760.1841">immediateAmount = 665 USDC (70 %)</text><text fill="#000000" font-family="sans-serif" font-size="13" lengthAdjust="spacing" textLength="250.4468" x="1159" y="775.3169">guaranteeAmount = 285 USDC (30 %)</text><g class="message" data-entity-1="part4" data-entity-2="part5" data-source-line="44" id="msg14"><polygon fill="#181818" points="992.6235,805.5156,1002.6235,809.5156,992.6235,813.5156,996.6235,809.5156" style="stroke:#181818;stroke-width:1;"/><line style="stroke:#181818;stroke-width:1;" x1="803.2891" x2="998.6235" y1="809.5156" y2="809.5156"/><text fill="#000000" font-family="sans-serif" font-size="13" lengthAdjust="spacing" textLength="177.3345" x="810.2891" y="804.4497">incAudits(tokenId, amount)</text></g><g class="message" data-entity-1="part4" data-entity-2="part1" data-source-line="45" id="msg15"><polygon fill="#181818" points="154.979,834.6484,144.979,838.6484,154.979,842.6484,150.979,838.6484" style="stroke:#181818;stroke-width:1;"/><line style="stroke:#181818;stroke-width:1;stroke-dasharray:2,2;" x1="148.979" x2="802.2891" y1="838.6484" y2="838.6484"/><text fill="#000000" font-family="sans-serif" font-size="13" lengthAdjust="spacing" textLength="254.7568" x="160.979" y="833.5825">&#171;event&#187; AuditValidated(guaranteeEnd)</text></g><rect fill="#EEEEEE" height="3" style="stroke:#EEEEEE;stroke-width:1;" width="1592.9468" x="0" y="867.2148"/><line style="stroke:#000000;stroke-width:1;" x1="0" x2="1592.9468" y1="867.2148" y2="867.2148"/><line style="stroke:#000000;stroke-width:1;" x1="0" x2="1592.9468" y1="870.2148" y2="870.2148"/><rect fill="#EEEEEE" height="23.1328" style="stroke:#000000;stroke-width:2;" width="443.5903" x="574.6782" y="856.6484"/><text fill="#000000" font-family="sans-serif" font-size="13" font-weight="700" lengthAdjust="spacing" textLength="425.0645" x="580.6782" y="872.7153">R&#233;cup&#233;ration du paiement (pull payment, sans d&#233;lai) (6a)</text><g class="message" data-entity-1="part1" data-entity-2="part4" data-source-line="49" id="msg16"><polygon fill="#181818" points="791.2891,906.9141,801.2891,910.9141,791.2891,914.9141,795.2891,910.9141" style="stroke:#181818;stroke-width:1;"/><line style="stroke:#181818;stroke-width:1;" x1="143.979" x2="797.2891" y1="910.9141" y2="910.9141"/><text fill="#000000" font-family="sans-serif" font-size="13" lengthAdjust="spacing" textLength="167.0576" x="150.979" y="905.8481">claimPayment(auditId=1)</text></g><g class="message" data-entity-1="part4" data-entity-2="part6" data-source-line="50" id="msg17"><polygon fill="#181818" points="1136.0107,936.0469,1146.0107,940.0469,1136.0107,944.0469,1140.0107,940.0469" style="stroke:#181818;stroke-width:1;"/><line style="stroke:#181818;stroke-width:1;" x1="803.2891" x2="1142.0107" y1="940.0469" y2="940.0469"/><text fill="#000000" font-family="sans-serif" font-size="13" lengthAdjust="spacing" textLength="215.3125" x="810.2891" y="934.981">releasePayment(auditId, auditor)</text></g><g class="message" data-entity-1="part6" data-entity-2="part7" data-source-line="51" id="msg18"><polygon fill="#181818" points="1362.7358,965.1797,1372.7358,969.1797,1362.7358,973.1797,1366.7358,969.1797" style="stroke:#181818;stroke-width:1;"/><line style="stroke:#181818;stroke-width:1;" x1="1148.0107" x2="1368.7358" y1="969.1797" y2="969.1797"/><text fill="#000000" font-family="sans-serif" font-size="13" lengthAdjust="spacing" textLength="182.0127" x="1155.0107" y="964.1138">transfer(auditor, 665 USDC)</text></g><g class="message" data-entity-1="part6" data-entity-2="part1" data-source-line="52" id="msg19"><polygon fill="#181818" points="154.979,994.3125,144.979,998.3125,154.979,1002.3125,150.979,998.3125" style="stroke:#181818;stroke-width:1;"/><line style="stroke:#181818;stroke-width:1;stroke-dasharray:2,2;" x1="148.979" x2="1147.0107" y1="998.3125" y2="998.3125"/><text fill="#000000" font-family="sans-serif" font-size="13" lengthAdjust="spacing" textLength="174.1924" x="160.979" y="993.2466">&#171;event&#187; PaymentReleased</text></g><rect fill="#EEEEEE" height="3" style="stroke:#EEEEEE;stroke-width:1;" width="1592.9468" x="0" y="1026.8789"/><line style="stroke:#000000;stroke-width:1;" x1="0" x2="1592.9468" y1="1026.8789" y2="1026.8789"/><line style="stroke:#000000;stroke-width:1;" x1="0" x2="1592.9468" y1="1029.8789" y2="1029.8789"/><rect fill="#EEEEEE" height="23.1328" style="stroke:#000000;stroke-width:2;" width="533.3589" x="529.7939" y="1016.3125"/><text fill="#000000" font-family="sans-serif" font-size="13" font-weight="700" lengthAdjust="spacing" textLength="514.833" x="535.7939" y="1032.3794">R&#233;cup&#233;ration de la garantie (apr&#232;s guaranteeEnd ou apr&#232;s refus) (7a)</text><g class="message" data-entity-1="part1" data-entity-2="part4" data-source-line="56" id="msg20"><polygon fill="#181818" points="791.2891,1066.5781,801.2891,1070.5781,791.2891,1074.5781,795.2891,1070.5781" style="stroke:#181818;stroke-width:1;"/><line style="stroke:#181818;stroke-width:1;" x1="143.979" x2="797.2891" y1="1070.5781" y2="1070.5781"/><text fill="#000000" font-family="sans-serif" font-size="13" lengthAdjust="spacing" textLength="178.4834" x="150.979" y="1065.5122">claimGuarantee(auditId=1)</text></g><path d="M808,1083.5781 L808,1108.5781 L1093,1108.5781 L1093,1093.5781 L1083,1083.5781 L808,1083.5781" fill="#FEFFDD" style="stroke:#181818;stroke-width:0.5;"/><path d="M1083,1083.5781 L1083,1093.5781 L1093,1093.5781 L1083,1083.5781" fill="#FEFFDD" style="stroke:#181818;stroke-width:0.5;"/><text fill="#000000" font-family="sans-serif" font-size="13" lengthAdjust="spacing" textLength="264.6782" x="814" y="1100.645">v&#233;rifie block.timestamp &#8805; guaranteeEnd</text><g class="message" data-entity-1="part4" data-entity-2="part6" data-source-line="58" id="msg21"><polygon fill="#181818" points="1136.0107,1130.8438,1146.0107,1134.8438,1136.0107,1138.8438,1140.0107,1134.8438" style="stroke:#181818;stroke-width:1;"/><line style="stroke:#181818;stroke-width:1;" x1="803.2891" x2="1142.0107" y1="1134.8438" y2="1134.8438"/><text fill="#000000" font-family="sans-serif" font-size="13" lengthAdjust="spacing" textLength="226.7383" x="810.2891" y="1129.7778">releaseGuarantee(auditId, auditor)</text></g><g class="message" data-entity-1="part6" data-entity-2="part7" data-source-line="59" id="msg22"><polygon fill="#181818" points="1362.7358,1159.9766,1372.7358,1163.9766,1362.7358,1167.9766,1366.7358,1163.9766" style="stroke:#181818;stroke-width:1;"/><line style="stroke:#181818;stroke-width:1;" x1="1148.0107" x2="1368.7358" y1="1163.9766" y2="1163.9766"/><text fill="#000000" font-family="sans-serif" font-size="13" lengthAdjust="spacing" textLength="182.0127" x="1155.0107" y="1158.9106">transfer(auditor, 285 USDC)</text></g><g class="message" data-entity-1="part6" data-entity-2="part1" data-source-line="60" id="msg23"><polygon fill="#181818" points="154.979,1189.1094,144.979,1193.1094,154.979,1197.1094,150.979,1193.1094" style="stroke:#181818;stroke-width:1;"/><line style="stroke:#181818;stroke-width:1;stroke-dasharray:2,2;" x1="148.979" x2="1147.0107" y1="1193.1094" y2="1193.1094"/><text fill="#000000" font-family="sans-serif" font-size="13" lengthAdjust="spacing" textLength="185.6182" x="160.979" y="1188.0435">&#171;event&#187; GuaranteeReleased</text></g><rect fill="#EEEEEE" height="3" style="stroke:#EEEEEE;stroke-width:1;" width="1592.9468" x="0" y="1221.6758"/><line style="stroke:#000000;stroke-width:1;" x1="0" x2="1592.9468" y1="1221.6758" y2="1221.6758"/><line style="stroke:#000000;stroke-width:1;" x1="0" x2="1592.9468" y1="1224.6758" y2="1224.6758"/><rect fill="#EEEEEE" height="23.1328" style="stroke:#000000;stroke-width:2;" width="366.9106" x="613.0181" y="1211.1094"/><text fill="#000000" font-family="sans-serif" font-size="13" font-weight="700" lengthAdjust="spacing" textLength="348.3848" x="619.0181" y="1227.1763">Remboursement apr&#232;s timeout (alternatif) (5b)</text><path d="M116,1249.2422 L116,1274.2422 L345,1274.2422 L345,1259.2422 L335,1249.2422 L116,1249.2422" fill="#FEFFDD" style="stroke:#181818;stroke-width:0.5;"/><path d="M335,1249.2422 L335,1259.2422 L345,1259.2422 L335,1249.2422" fill="#FEFFDD" style="stroke:#181818;stroke-width:0.5;"/><text fill="#000000" font-family="sans-serif" font-size="13" lengthAdjust="spacing" textLength="208.4697" x="122" y="1266.3091">10 jours &#233;coul&#233;s sans validation</text><g class="message" data-entity-1="part2" data-entity-2="part4" data-source-line="65" id="msg24"><polygon fill="#181818" points="791.2891,1296.5078,801.2891,1300.5078,791.2891,1304.5078,795.2891,1300.5078" style="stroke:#181818;stroke-width:1;"/><line style="stroke:#181818;stroke-width:1;" x1="231.2642" x2="797.2891" y1="1300.5078" y2="1300.5078"/><text fill="#000000" font-family="sans-serif" font-size="13" lengthAdjust="spacing" textLength="241.3125" x="238.2642" y="1295.4419">claimRefundAfterTimeout(auditId=1)</text></g><g class="message" data-entity-1="part4" data-entity-2="part6" data-source-line="66" id="msg25"><polygon fill="#181818" points="1136.0107,1325.6406,1146.0107,1329.6406,1136.0107,1333.6406,1140.0107,1329.6406" style="stroke:#181818;stroke-width:1;"/><line style="stroke:#181818;stroke-width:1;" x1="803.2891" x2="1142.0107" y1="1329.6406" y2="1329.6406"/><text fill="#000000" font-family="sans-serif" font-size="13" lengthAdjust="spacing" textLength="243.4199" x="810.2891" y="1324.5747">refund(auditId, requester, 950 USDC)</text></g><g class="message" data-entity-1="part6" data-entity-2="part7" data-source-line="67" id="msg26"><polygon fill="#181818" points="1362.7358,1354.7734,1372.7358,1358.7734,1362.7358,1362.7734,1366.7358,1358.7734" style="stroke:#181818;stroke-width:1;"/><line style="stroke:#181818;stroke-width:1;" x1="1148.0107" x2="1368.7358" y1="1358.7734" y2="1358.7734"/><text fill="#000000" font-family="sans-serif" font-size="13" lengthAdjust="spacing" textLength="198.5928" x="1155.0107" y="1353.7075">transfer(requester, 950 USDC)</text></g><g class="message" data-entity-1="part4" data-entity-2="part2" data-source-line="68" id="msg27"><polygon fill="#181818" points="242.2642,1383.9063,232.2642,1387.9063,242.2642,1391.9063,238.2642,1387.9063" style="stroke:#181818;stroke-width:1;"/><line style="stroke:#181818;stroke-width:1;stroke-dasharray:2,2;" x1="236.2642" x2="802.2891" y1="1387.9063" y2="1387.9063"/><text fill="#000000" font-family="sans-serif" font-size="13" lengthAdjust="spacing" textLength="156.584" x="248.2642" y="1382.8403">&#171;event&#187; RefundClaimed</text></g><rect fill="#EEEEEE" height="3" style="stroke:#EEEEEE;stroke-width:1;" width="1592.9468" x="0" y="1416.4727"/><line style="stroke:#000000;stroke-width:1;" x1="0" x2="1592.9468" y1="1416.4727" y2="1416.4727"/><line style="stroke:#000000;stroke-width:1;" x1="0" x2="1592.9468" y1="1419.4727" y2="1419.4727"/><rect fill="#EEEEEE" height="23.1328" style="stroke:#000000;stroke-width:2;" width="453.4927" x="569.7271" y="1405.9063"/><text fill="#000000" font-family="sans-serif" font-size="13" font-weight="700" lengthAdjust="spacing" textLength="434.9668" x="575.7271" y="1421.9731">Signalement d'exploit (alternatif, pendant la garantie) (8a)</text><g class="message" data-entity-1="part2" data-entity-2="part4" data-source-line="72" id="msg28"><polygon fill="#181818" points="791.2891,1456.1719,801.2891,1460.1719,791.2891,1464.1719,795.2891,1460.1719" style="stroke:#181818;stroke-width:1;"/><line style="stroke:#181818;stroke-width:1;" x1="231.2642" x2="797.2891" y1="1460.1719" y2="1460.1719"/><text fill="#000000" font-family="sans-serif" font-size="13" lengthAdjust="spacing" textLength="242.4678" x="238.2642" y="1455.106">reportExploit(auditId=1, preuvesCID)</text></g><g class="message" data-entity-1="part4" data-entity-2="part9" data-source-line="73" id="msg29"><polygon fill="#181818" points="1530.6177,1485.3047,1540.6177,1489.3047,1530.6177,1493.3047,1534.6177,1489.3047" style="stroke:#181818;stroke-width:1;"/><line style="stroke:#181818;stroke-width:1;" x1="803.2891" x2="1536.6177" y1="1489.3047" y2="1489.3047"/><text fill="#000000" font-family="sans-serif" font-size="13" lengthAdjust="spacing" textLength="294.4487" x="810.2891" y="1484.2388">createIncident(auditId, reporter, preuvesCID)</text></g><g class="message" data-entity-1="part4" data-entity-2="part2" data-source-line="74" id="msg30"><polygon fill="#181818" points="242.2642,1514.4375,232.2642,1518.4375,242.2642,1522.4375,238.2642,1518.4375" style="stroke:#181818;stroke-width:1;"/><line style="stroke:#181818;stroke-width:1;stroke-dasharray:2,2;" x1="236.2642" x2="802.2891" y1="1518.4375" y2="1518.4375"/><text fill="#000000" font-family="sans-serif" font-size="13" lengthAdjust="spacing" textLength="161.4272" x="248.2642" y="1513.3716">&#171;event&#187; ExploitReported</text></g><g class="message" data-entity-1="part3" data-entity-2="part4" data-source-line="76" id="msg31"><polygon fill="#181818" points="791.2891,1543.5703,801.2891,1547.5703,791.2891,1551.5703,795.2891,1547.5703" style="stroke:#181818;stroke-width:1;"/><line style="stroke:#181818;stroke-width:1;" x1="304.2588" x2="797.2891" y1="1547.5703" y2="1547.5703"/><text fill="#000000" font-family="sans-serif" font-size="13" lengthAdjust="spacing" textLength="280.6362" x="311.2588" y="1542.5044">resolveIncident(auditId=1, validated=true)</text></g><g class="message" data-entity-1="part4" data-entity-2="part5" data-source-line="77" id="msg32"><polygon fill="#181818" points="992.6235,1572.7031,1002.6235,1576.7031,992.6235,1580.7031,996.6235,1576.7031" style="stroke:#181818;stroke-width:1;"/><line style="stroke:#181818;stroke-width:1;" x1="803.2891" x2="998.6235" y1="1576.7031" y2="1576.7031"/><text fill="#000000" font-family="sans-serif" font-size="13" lengthAdjust="spacing" textLength="129.251" x="810.2891" y="1571.6372">incExploits(tokenId)</text></g><g class="message" data-entity-1="part4" data-entity-2="part3" data-source-line="78" id="msg33"><polygon fill="#181818" points="315.2588,1601.8359,305.2588,1605.8359,315.2588,1609.8359,311.2588,1605.8359" style="stroke:#181818;stroke-width:1;"/><line style="stroke:#181818;stroke-width:1;stroke-dasharray:2,2;" x1="309.2588" x2="802.2891" y1="1605.8359" y2="1605.8359"/><text fill="#000000" font-family="sans-serif" font-size="13" lengthAdjust="spacing" textLength="276.9609" x="321.2588" y="1600.77">&#171;event&#187; IncidentResolved(validated=true)</text></g><rect fill="#EEEEEE" height="3" style="stroke:#EEEEEE;stroke-width:1;" width="1592.9468" x="0" y="1634.4023"/><line style="stroke:#000000;stroke-width:1;" x1="0" x2="1592.9468" y1="1634.4023" y2="1634.4023"/><line style="stroke:#000000;stroke-width:1;" x1="0" x2="1592.9468" y1="1637.4023" y2="1637.4023"/><rect fill="#EEEEEE" height="23.1328" style="stroke:#000000;stroke-width:2;" width="235.1714" x="678.8877" y="1623.8359"/><text fill="#000000" font-family="sans-serif" font-size="13" font-weight="700" lengthAdjust="spacing" textLength="216.6455" x="684.8877" y="1639.9028">Exploit rejet&#233; par la DAO (8b)</text><g class="message" data-entity-1="part3" data-entity-2="part4" data-source-line="82" id="msg34"><polygon fill="#181818" points="791.2891,1674.1016,801.2891,1678.1016,791.2891,1682.1016,795.2891,1678.1016" style="stroke:#181818;stroke-width:1;"/><line style="stroke:#181818;stroke-width:1;" x1="304.2588" x2="797.2891" y1="1678.1016" y2="1678.1016"/><text fill="#000000" font-family="sans-serif" font-size="13" lengthAdjust="spacing" textLength="284.8828" x="311.2588" y="1673.0356">resolveIncident(auditId=1, validated=false)</text></g><g class="message" data-entity-1="part4" data-entity-2="part3" data-source-line="83" id="msg35"><polygon fill="#181818" points="315.2588,1703.2344,305.2588,1707.2344,315.2588,1711.2344,311.2588,1707.2344" style="stroke:#181818;stroke-width:1;"/><line style="stroke:#181818;stroke-width:1;stroke-dasharray:2,2;" x1="309.2588" x2="802.2891" y1="1707.2344" y2="1707.2344"/><text fill="#000000" font-family="sans-serif" font-size="13" lengthAdjust="spacing" textLength="281.2075" x="321.2588" y="1702.1685">&#171;event&#187; IncidentResolved(validated=false)</text></g><path d="M5,1720.2344 L5,1760.2344 L283,1760.2344 L283,1730.2344 L273,1720.2344 L5,1720.2344" fill="#FEFFDD" style="stroke:#181818;stroke-width:0.5;"/><path d="M273,1720.2344 L273,1730.2344 L283,1730.2344 L273,1720.2344" fill="#FEFFDD" style="stroke:#181818;stroke-width:0.5;"/><text fill="#000000" font-family="sans-serif" font-size="13" lengthAdjust="spacing" textLength="257.1689" x="11" y="1737.3013">audit CLOSED + exploitValidated=false</text><text fill="#000000" font-family="sans-serif" font-size="13" lengthAdjust="spacing" textLength="201.8682" x="11" y="1752.4341">l'auditeur r&#233;cup&#232;re sa garantie</text><g class="message" data-entity-1="part1" data-entity-2="part4" data-source-line="85" id="msg36"><polygon fill="#181818" points="791.2891,1782.6328,801.2891,1786.6328,791.2891,1790.6328,795.2891,1786.6328" style="stroke:#181818;stroke-width:1;"/><line style="stroke:#181818;stroke-width:1;" x1="143.979" x2="797.2891" y1="1786.6328" y2="1786.6328"/><text fill="#000000" font-family="sans-serif" font-size="13" lengthAdjust="spacing" textLength="178.4834" x="150.979" y="1781.5669">claimGuarantee(auditId=1)</text></g><path d="M808,1799.6328 L808,1843.6328 L1101,1843.6328 L1101,1809.6328 L1091,1799.6328 L808,1799.6328" fill="#FEFFDD" style="stroke:#181818;stroke-width:0.5;"/><path d="M1091,1799.6328 L1091,1809.6328 L1101,1809.6328 L1091,1799.6328" fill="#FEFFDD" style="stroke:#181818;stroke-width:0.5;"/><text fill="#000000" font-family="sans-serif" font-size="13" lengthAdjust="spacing" textLength="272.9111" x="814" y="1816.6997">status=CLOSED et exploitValidated=false</text><text fill="#000000" font-family="sans-serif" font-size="17" font-weight="700" lengthAdjust="spacing" textLength="99.4019" x="814" y="1835.5454">&gt; autoris&#233;</text><g class="message" data-entity-1="part4" data-entity-2="part6" data-source-line="87" id="msg37"><polygon fill="#181818" points="1136.0107,1866.6875,1146.0107,1870.6875,1136.0107,1874.6875,1140.0107,1870.6875" style="stroke:#181818;stroke-width:1;"/><line style="stroke:#181818;stroke-width:1;" x1="803.2891" x2="1142.0107" y1="1870.6875" y2="1870.6875"/><text fill="#000000" font-family="sans-serif" font-size="13" lengthAdjust="spacing" textLength="226.7383" x="810.2891" y="1865.6216">releaseGuarantee(auditId, auditor)</text></g><g class="message" data-entity-1="part6" data-entity-2="part7" data-source-line="88" id="msg38"><polygon fill="#181818" points="1362.7358,1895.8203,1372.7358,1899.8203,1362.7358,1903.8203,1366.7358,1899.8203" style="stroke:#181818;stroke-width:1;"/><line style="stroke:#181818;stroke-width:1;" x1="1148.0107" x2="1368.7358" y1="1899.8203" y2="1899.8203"/><text fill="#000000" font-family="sans-serif" font-size="13" lengthAdjust="spacing" textLength="186.145" x="1155.0107" y="1894.7544">transfer(auditor, 28,5 USDC)</text></g><g class="message" data-entity-1="part6" data-entity-2="part1" data-source-line="89" id="msg39"><polygon fill="#181818" points="154.979,1924.9531,144.979,1928.9531,154.979,1932.9531,150.979,1928.9531" style="stroke:#181818;stroke-width:1;"/><line style="stroke:#181818;stroke-width:1;stroke-dasharray:2,2;" x1="148.979" x2="1147.0107" y1="1928.9531" y2="1928.9531"/><text fill="#000000" font-family="sans-serif" font-size="13" lengthAdjust="spacing" textLength="185.6182" x="160.979" y="1923.8872">&#171;event&#187; GuaranteeReleased</text></g><rect fill="#EEEEEE" height="3" style="stroke:#EEEEEE;stroke-width:1;" width="1592.9468" x="0" y="1957.5195"/><line style="stroke:#000000;stroke-width:1;" x1="0" x2="1592.9468" y1="1957.5195" y2="1957.5195"/><line style="stroke:#000000;stroke-width:1;" x1="0" x2="1592.9468" y1="1960.5195" y2="1960.5195"/><rect fill="#EEEEEE" height="23.1328" style="stroke:#000000;stroke-width:2;" width="533.1558" x="529.8955" y="1946.9531"/><text fill="#000000" font-family="sans-serif" font-size="13" font-weight="700" lengthAdjust="spacing" textLength="514.6299" x="535.8955" y="1963.02">R&#233;cup&#233;ration de la garantie par le demandeur apr&#232;s exploit valid&#233; (9)</text><path d="M90,1985.0859 L90,2010.0859 L372,2010.0859 L372,1995.0859 L362,1985.0859 L90,1985.0859" fill="#FEFFDD" style="stroke:#181818;stroke-width:0.5;"/><path d="M362,1985.0859 L362,1995.0859 L372,1995.0859 L362,1985.0859" fill="#FEFFDD" style="stroke:#181818;stroke-width:0.5;"/><text fill="#000000" font-family="sans-serif" font-size="13" lengthAdjust="spacing" textLength="261.187" x="96" y="2002.1528">audit CLOSED + exploitValidated = true</text><g class="message" data-entity-1="part2" data-entity-2="part4" data-source-line="94" id="msg40"><polygon fill="#181818" points="791.2891,2032.3516,801.2891,2036.3516,791.2891,2040.3516,795.2891,2036.3516" style="stroke:#181818;stroke-width:1;"/><line style="stroke:#181818;stroke-width:1;" x1="231.2642" x2="797.2891" y1="2036.3516" y2="2036.3516"/><text fill="#000000" font-family="sans-serif" font-size="13" lengthAdjust="spacing" textLength="254.8267" x="238.2642" y="2031.2856">claimGuaranteeAfterExploit(auditId=1)</text></g><path d="M808,2049.3516 L808,2074.3516 L1142,2074.3516 L1142,2059.3516 L1132,2049.3516 L808,2049.3516" fill="#FEFFDD" style="stroke:#181818;stroke-width:0.5;"/><path d="M1132,2049.3516 L1132,2059.3516 L1142,2059.3516 L1132,2049.3516" fill="#FEFFDD" style="stroke:#181818;stroke-width:0.5;"/><text fill="#000000" font-family="sans-serif" font-size="13" lengthAdjust="spacing" textLength="313.6313" x="814" y="2066.4185">v&#233;rifie status=CLOSED et exploitValidated=true</text><g class="message" data-entity-1="part4" data-entity-2="part6" data-source-line="96" id="msg41"><polygon fill="#181818" points="1136.0107,2096.6172,1146.0107,2100.6172,1136.0107,2104.6172,1140.0107,2100.6172" style="stroke:#181818;stroke-width:1;"/><line style="stroke:#181818;stroke-width:1;" x1="803.2891" x2="1142.0107" y1="2100.6172" y2="2100.6172"/><text fill="#000000" font-family="sans-serif" font-size="13" lengthAdjust="spacing" textLength="243.3184" x="810.2891" y="2095.5513">releaseGuarantee(auditId, requester)</text></g><g class="message" data-entity-1="part6" data-entity-2="part7" data-source-line="97" id="msg42"><polygon fill="#181818" points="1362.7358,2125.75,1372.7358,2129.75,1362.7358,2133.75,1366.7358,2129.75" style="stroke:#181818;stroke-width:1;"/><line style="stroke:#181818;stroke-width:1;" x1="1148.0107" x2="1368.7358" y1="2129.75" y2="2129.75"/><text fill="#000000" font-family="sans-serif" font-size="13" lengthAdjust="spacing" textLength="202.7251" x="1155.0107" y="2124.6841">transfer(requester, 28,5 USDC)</text></g><g class="message" data-entity-1="part4" data-entity-2="part2" data-source-line="98" id="msg43"><polygon fill="#181818" points="242.2642,2154.8828,232.2642,2158.8828,242.2642,2162.8828,238.2642,2158.8828" style="stroke:#181818;stroke-width:1;"/><line style="stroke:#181818;stroke-width:1;stroke-dasharray:2,2;" x1="236.2642" x2="802.2891" y1="2158.8828" y2="2158.8828"/><text fill="#000000" font-family="sans-serif" font-size="13" lengthAdjust="spacing" textLength="262.5137" x="248.2642" y="2153.8169">&#171;event&#187; GuaranteeClaimedByRequester</text></g><?plantuml-src hLRRJYD747ttLvGKHOorTcJOS5kjaNmZGeeW6i1FUMdSPM-pCzEJlZZB9-H38gtVzm_y9_cIL7VF33EC5mWA4X93LTVbrAdJROH94CuJ-mLo9RA5o1dzoIrzIICNaemZouM9SIMqKG-T3biOgI3yU1DQzyaqZ1gsAQOiuzv8jcdJDheg_lAsqLKdPye8bpqppOJU8sxOOyojOKR8RCpu2ft3k1rWfXTA_bcac3NijzVJ2Jp-aFssORzHoBHrkKlxJSDE1S-b4TcgiiyxdU4GBZBAAN9N6KJxNHWEEvqHGFyCOlW0odU4obSdLPHhj5psGEUu42mn0dMt4tltCRcd8ZENInEnuDxjZA5FfX6PPl7a-60VZFoC6Vnm2H1fQPF-dRGPTo5AluyVSOsPEJk38cTSb83SrnlZuXCg-WLM3h8FbzlDIb91eOk3_llG1xbFjvjy-yq0txDPE07Hpy4wzMNVKawM4tFM6AbYVZtO7mm67l9kuUR0u9XBBOolgson1mkP6KL46N5ENufyb9bSJ6inUh2oJD4G4ATM-IA7fuFx4ZXN0KN8z1BLkP8fbV67HTSo3C_84kRQ0pWiIthDEVHKebDmMZldK9wsKPw6pf27jYxuSBzRmhSKcV2uSeHaZt65MgFRjj2u2QXkDn19pw8CawSiqXX0GpwfWKLn7jCrSNo64AqOrsXygNEM25umu90zBM4Th5WRNkWoO3aZbqGkFfyJ6wkgUb0DkOAsLuCpamP1YTKd0t99wmemfq954egWLK2L8NoW_uiqHIvS-fJuRc08HqU7OQMZum7ys2MVYYELpy59wVFU-s36mUMiBHofd-z8HtwnVCt--3C85a3HiAkKCxU3VhkscuNDjvl0Kg-fJ61Afo7ARPBGvuFx8WKWuW7VRX8ckX0TjG1Va27zBNZlnbjXGjJ69puLwDtEh4NpnwqhyNDUxJwBc778m7UsHcnciF8028I8vMhxLKCT4f0MYdyhN5fDVHxlxlENybIzqoOzF0afkrXIjZl7jP-CI8bJBCtXdx_-RcHkezJAy4gSIWxjngcAsaGAKv9bfSFS2mHSiT8I3KZrYTS4ufBmEBmBUFXUIKALLvVz0Tox042GayXlDphGPLsjQ4rLFO0nuPlnqP92tuH4t-ECytl4OETUxi1ZfzykEGo5J5nD1HhNOfMn9631z_1BdaZHWA47EMscksDhX29iJbZzdWctgRiSPY54NVjoXNQDcgwDijcvGuQat-05FN1uOq526DTByroxco9L70vGF-uHKnMZPR9kXNVbb6B9XqPPx3RrfeXPAKwLcKBNSvU1uv27Hq-ZEd2BO5JCFRexX5ui3aKNApefkFLVQrwoHECRgYhEFLBPxKfuCan-lRgUJU4T5EEVDm_zdj75MBv6LD2Phmg9z1KVtgWO90_6wc6H7yrt2w0RdrdQUA6tc_zJFNfla8zdXTPFcDuFrKkxq9ToiVmyt6lYT9Uol30EkZGTjvwgIrMd5vZM_ZqhrIzFm6Ty3UIL2BqaKJNOTsrr5RgGgV53N9xz5m00?></g></svg>