<svg xmlns="http://www.w3.org/2000/svg" xmlns:xlink="http://www.w3.org/1999/xlink" contentStyleType="text/css" data-diagram-type="DESCRIPTION" height="1147px" preserveAspectRatio="none" style="width:1501px;height:1147px;background:#FFFFFF;" version="1.1" viewBox="0 0 1501 1147" width="1501px" zoomAndPan="magnify"><?plantuml 1.2026.3beta6?><defs/><g><g class="title" data-source-line="1"><text fill="#000000" font-family="sans-serif" font-size="14" font-weight="700" lengthAdjust="spacing" textLength="251.1729" x="621.7886" y="22.9951">Cas d'utilisation - AuditRegistry</text></g><!--cluster Protocole AuditRegistry--><g class="cluster" data-qualified-name="Protocole AuditRegistry" data-source-line="10" id="ent0006"><rect fill="none" height="906" rx="2.5" ry="2.5" style="stroke:#181818;stroke-width:1;" width="1374.79" x="112.96" y="135.8569"/><text fill="#000000" font-family="sans-serif" font-size="14" font-weight="700" lengthAdjust="spacing" textLength="188.6445" x="706.0327" y="150.852">Protocole AuditRegistry</text></g><!--cluster Gestion de l'auditeur--><g class="cluster" data-qualified-name="Protocole AuditRegistry.Gestion de l.auditeur" data-source-line="12" id="ent0007"><path d="M139.46,178.8569 L306.4981,178.8569 A3.75,3.75 0 0 1 308.9981,181.3569 L315.9981,201.1538 L980.59,201.1538 A2.5,2.5 0 0 1 983.09,203.6538 L983.09,600.3569 A2.5,2.5 0 0 1 980.59,602.8569 L139.46,602.8569 A2.5,2.5 0 0 1 136.96,600.3569 L136.96,181.3569 A2.5,2.5 0 0 1 139.46,178.8569" fill="none" style="stroke:#000000;stroke-width:1.5;"/><line style="stroke:#000000;stroke-width:1.5;" x1="136.96" x2="315.9981" y1="201.1538" y2="201.1538"/><text fill="#000000" font-family="sans-serif" font-size="14" font-weight="700" lengthAdjust="spacing" textLength="166.0381" x="140.96" y="193.852">Gestion de l'auditeur</text></g><!--cluster Gestion du demandeur--><g class="cluster" data-qualified-name="Protocole AuditRegistry.Gestion du demandeur" data-source-line="21" id="ent0014"><path d="M734.77,626.8569 L915.8081,626.8569 A3.75,3.75 0 0 1 918.3081,629.3569 L925.3081,649.1538 L1449.14,649.1538 A2.5,2.5 0 0 1 1451.64,651.6538 L1451.64,900.3569 A2.5,2.5 0 0 1 1449.14,902.8569 L734.77,902.8569 A2.5,2.5 0 0 1 732.27,900.3569 L732.27,629.3569 A2.5,2.5 0 0 1 734.77,626.8569" fill="none" style="stroke:#000000;stroke-width:1.5;"/><line style="stroke:#000000;stroke-width:1.5;" x1="732.27" x2="925.3081" y1="649.1538" y2="649.1538"/><text fill="#000000" font-family="sans-serif" font-size="14" font-weight="700" lengthAdjust="spacing" textLength="180.0381" x="736.27" y="641.852">Gestion du demandeur</text></g><!--cluster Gouvernance--><g class="cluster" data-qualified-name="Protocole AuditRegistry.Gouvernance" data-source-line="28" id="ent0019"><path d="M1258.26,926.8569 L1363.0364,926.8569 A3.75,3.75 0 0 1 1365.5364,929.3569 L1372.5364,949.1538 L1461.25,949.1538 A2.5,2.5 0 0 1 1463.75,951.6538 L1463.75,1015.3569 A2.5,2.5 0 0 1 1461.25,1017.8569 L1258.26,1017.8569 A2.5,2.5 0 0 1 1255.76,1015.3569 L1255.76,929.3569 A2.5,2.5 0 0 1 1258.26,926.8569" fill="none" style="stroke:#000000;stroke-width:1.5;"/><line style="stroke:#000000;stroke-width:1.5;" x1="1255.76" x2="1372.5364" y1="949.1538" y2="949.1538"/><text fill="#000000" font-family="sans-serif" font-size="14" font-weight="700" lengthAdjust="spacing" textLength="103.7764" x="1259.76" y="941.852">Gouvernance</text></g><!--cluster Administration--><g class="cluster" data-qualified-name="Protocole AuditRegistry.Administration" data-source-line="32" id="ent0021"><path d="M167.65,771.8569 L286.1119,771.8569 A3.75,3.75 0 0 1 288.6119,774.3569 L295.6119,794.1538 L397.57,794.1538 A2.5,2.5 0 0 1 400.07,796.6538 L400.07,870.3569 A2.5,2.5 0 0 1 397.57,872.8569 L167.65,872.8569 A2.5,2.5 0 0 1 165.15,870.3569 L165.15,774.3569 A2.5,2.5 0 0 1 167.65,771.8569" fill="none" style="stroke:#000000;stroke-width:1.5;"/><line style="stroke:#000000;stroke-width:1.5;" x1="165.15" x2="295.6119" y1="794.1538" y2="794.1538"/><text fill="#000000" font-family="sans-serif" font-size="14" font-weight="700" lengthAdjust="spacing" textLength="117.4619" x="169.15" y="786.852">Administration</text></g><!--entity UC_REGISTER--><g class="entity" data-qualified-name="Protocole AuditRegistry.Gestion de l.auditeur.UC_REGISTER" data-source-line="13" id="ent0008"><ellipse cx="282.6111" cy="488.8605" fill="#F1F1F1" rx="48.6111" ry="14.5236" style="stroke:#181818;stroke-width:0.5;"/><text fill="#000000" font-family="sans-serif" font-size="14" lengthAdjust="spacing" textLength="64.5039" x="250.3592" y="493.5089">S'inscrire</text></g><!--entity UC_SPECIALTIES--><g class="entity" data-qualified-name="Protocole AuditRegistry.Gestion de l.auditeur.UC_SPECIALTIES" data-source-line="14" id="ent0009"><ellipse cx="282.61" cy="562.8609" fill="#F1F1F1" rx="109.52" ry="24.304" style="stroke:#181818;stroke-width:0.5;"/><text fill="#000000" font-family="sans-serif" font-size="14" lengthAdjust="spacing" textLength="196.8408" x="184.1896" y="567.5093">Mettre &#224; jour ses sp&#233;cialit&#233;s</text></g><!--entity UC_SET_ADDR--><g class="entity" data-qualified-name="Protocole AuditRegistry.Gestion de l.auditeur.UC_SET_ADDR" data-source-line="15" id="ent0010"><ellipse cx="282.6147" cy="410.8578" fill="#F1F1F1" rx="129.6547" ry="28.3309" style="stroke:#181818;stroke-width:0.5;"/><text fill="#000000" font-family="sans-serif" font-size="14" lengthAdjust="spacing" textLength="239.8457" x="162.6919" y="415.5063">D&#233;finir l'adresse du contrat audit&#233;</text></g><!--entity UC_VALIDATE--><g class="entity" data-qualified-name="Protocole AuditRegistry.Gestion de l.auditeur.UC_VALIDATE" data-source-line="16" id="ent0011"><ellipse cx="895.0131" cy="410.8615" fill="#F1F1F1" rx="72.0731" ry="16.8146" style="stroke:#181818;stroke-width:0.5;"/><text fill="#000000" font-family="sans-serif" font-size="14" lengthAdjust="spacing" textLength="111.5557" x="839.2353" y="415.5099">Valider un audit</text></g><!--entity UC_CLAIM_PAYMENT--><g class="entity" data-qualified-name="Protocole AuditRegistry.Gestion de l.auditeur.UC_CLAIM_PAYMENT" data-source-line="17" id="ent0012"><ellipse cx="282.6051" cy="238.8579" fill="#F1F1F1" rx="113.5051" ry="25.101" style="stroke:#181818;stroke-width:0.5;"/><text fill="#000000" font-family="sans-serif" font-size="14" lengthAdjust="spacing" textLength="205.4404" x="179.8848" y="243.5063">R&#233;clamer le paiement (70 %)</text></g><!--entity UC_CLAIM_GUARANTEE--><g class="entity" data-qualified-name="Protocole AuditRegistry.Gestion de l.auditeur.UC_CLAIM_GUARANTEE" data-source-line="18" id="ent0013"><ellipse cx="282.6101" cy="322.8609" fill="#F1F1F1" rx="109.8201" ry="24.364" style="stroke:#181818;stroke-width:0.5;"/><text fill="#000000" font-family="sans-serif" font-size="14" lengthAdjust="spacing" textLength="197.4902" x="183.8649" y="327.5093">R&#233;clamer la garantie (30 %)</text></g><!--entity UC_DEPOSIT--><g class="entity" data-qualified-name="Protocole AuditRegistry.Gestion du demandeur.UC_DEPOSIT" data-source-line="22" id="ent0015"><ellipse cx="1359.7469" cy="693.8543" fill="#F1F1F1" rx="75.8869" ry="17.5774" style="stroke:#181818;stroke-width:0.5;"/><text fill="#000000" font-family="sans-serif" font-size="14" lengthAdjust="spacing" textLength="120.873" x="1299.3104" y="698.5027">D&#233;poser un audit</text></g><!--entity UC_REFUND--><g class="entity" data-qualified-name="Protocole AuditRegistry.Gestion du demandeur.UC_REFUND" data-source-line="23" id="ent0016"><ellipse cx="895.0148" cy="693.8558" fill="#F1F1F1" rx="146.7448" ry="31.749" style="stroke:#181818;stroke-width:0.5;"/><text fill="#000000" font-family="sans-serif" font-size="14" lengthAdjust="spacing" textLength="275.7002" x="757.1647" y="698.5043">R&#233;clamer un remboursement (timeout)</text></g><!--entity UC_EXPLOIT--><g class="entity" data-qualified-name="Protocole AuditRegistry.Gestion du demandeur.UC_EXPLOIT" data-source-line="24" id="ent0017"><ellipse cx="895.0091" cy="868.8587" fill="#F1F1F1" rx="80.4091" ry="18.4818" style="stroke:#181818;stroke-width:0.5;"/><text fill="#000000" font-family="sans-serif" font-size="14" lengthAdjust="spacing" textLength="131.6396" x="829.1893" y="873.5071">Signaler un exploit</text></g><!--entity UC_CLAIM_GUARANTEE_EXPLOIT--><g class="entity" data-qualified-name="Protocole AuditRegistry.Gestion du demandeur.UC_CLAIM_GUARANTEE_EXPLOIT" data-source-line="25" id="ent0018"><ellipse cx="895.0087" cy="787.8586" fill="#F1F1F1" rx="123.3587" ry="27.0717" style="stroke:#181818;stroke-width:0.5;"/><text fill="#000000" font-family="sans-serif" font-size="14" lengthAdjust="spacing" textLength="203.5127" x="793.2523" y="787.7996">R&#233;cup&#233;rer la garantie (30 %)</text><text fill="#000000" font-family="sans-serif" font-size="14" lengthAdjust="spacing" textLength="137.792" x="826.1127" y="804.0965">apr&#232;s exploit valid&#233;</text></g><!--entity UC_RESOLVE--><g class="entity" data-qualified-name="Protocole AuditRegistry.Gouvernance.UC_RESOLVE" data-source-line="29" id="ent0020"><ellipse cx="1359.745" cy="981.8559" fill="#F1F1F1" rx="87.995" ry="19.999" style="stroke:#181818;stroke-width:0.5;"/><text fill="#000000" font-family="sans-serif" font-size="14" lengthAdjust="spacing" textLength="149.1875" x="1285.1513" y="986.5043">R&#233;soudre un incident</text></g><!--entity UC_LINK--><g class="entity" data-qualified-name="Protocole AuditRegistry.Administration.UC_LINK" data-source-line="33" id="ent0022"><ellipse cx="282.6113" cy="831.8525" fill="#F1F1F1" rx="101.4613" ry="24.8956" style="stroke:#181818;stroke-width:0.5;"/><text fill="#000000" font-family="sans-serif" font-size="14" lengthAdjust="spacing" textLength="112.499" x="226.3618" y="826.6785">Lier les contrats</text><text fill="#000000" font-family="sans-serif" font-size="14" lengthAdjust="spacing" textLength="146.5693" x="209.3267" y="842.9754">(setRegistryAddress)</text></g><!--entity A--><g class="entity" data-qualified-name="A" data-source-line="5" id="ent0002"><ellipse cx="35.979" cy="337.2069" fill="#F1F1F1" rx="8" ry="8" style="stroke:#181818;stroke-width:0.5;"/><path d="M35.979,345.2069 L35.979,372.2069 M22.979,353.2069 L48.979,353.2069 M35.979,372.2069 L22.979,387.2069 M35.979,372.2069 L48.979,387.2069" fill="none" style="stroke:#181818;stroke-width:0.5;"/><text fill="#000000" font-family="sans-serif" font-size="14" lengthAdjust="spacing" textLength="59.958" x="6" y="401.702">Auditeur</text></g><!--entity D--><g class="entity" data-qualified-name="D" data-source-line="6" id="ent0003"><ellipse cx="282.6162" cy="1066.2069" fill="#F1F1F1" rx="8" ry="8" style="stroke:#181818;stroke-width:0.5;"/><path d="M282.6162,1074.2069 L282.6162,1101.2069 M269.6162,1082.2069 L295.6162,1082.2069 M282.6162,1101.2069 L269.6162,1116.2069 M282.6162,1101.2069 L295.6162,1116.2069" fill="none" style="stroke:#181818;stroke-width:0.5;"/><text fill="#000000" font-family="sans-serif" font-size="14" lengthAdjust="spacing" textLength="82.6123" x="241.31" y="1130.702">Demandeur</text></g><!--entity DAO--><g class="entity" data-qualified-name="DAO" data-source-line="7" id="ent0004"><ellipse cx="895.0085" cy="1066.2069" fill="#F1F1F1" rx="8" ry="8" style="stroke:#181818;stroke-width:0.5;"/><path d="M895.0085,1074.2069 L895.0085,1101.2069 M882.0085,1082.2069 L908.0085,1082.2069 M895.0085,1101.2069 L882.0085,1116.2069 M895.0085,1101.2069 L908.0085,1116.2069" fill="none" style="stroke:#181818;stroke-width:0.5;"/><text fill="#000000" font-family="sans-serif" font-size="14" lengthAdjust="spacing" textLength="31.377" x="879.32" y="1130.702">DAO</text></g><!--entity O--><g class="entity" data-qualified-name="O" data-source-line="8" id="ent0005"><ellipse cx="35.976" cy="802.2069" fill="#F1F1F1" rx="8" ry="8" style="stroke:#181818;stroke-width:0.5;"/><path d="M35.976,810.2069 L35.976,837.2069 M22.976,818.2069 L48.976,818.2069 M35.976,837.2069 L22.976,852.2069 M35.976,837.2069 L48.976,852.2069" fill="none" style="stroke:#181818;stroke-width:0.5;"/><text fill="#000000" font-family="sans-serif" font-size="14" lengthAdjust="spacing" textLength="45.7119" x="13.12" y="866.702">Owner</text></g><!--link A to UC_REGISTER--><g class="link" data-entity-1="ent0002" data-entity-2="ent0008" data-link-type="dependency" data-source-line="37" id="lnk23"><path d="M56.92,405.1869 C68.49,423.6569 84.78,444.4469 104.96,456.8569 C143.85,480.7869 190.0856,487.5468 227.6556,489.1768" fill="none" id="A-to-UC_REGISTER" style="stroke:#181818;stroke-width:1;"/><polygon fill="#181818" points="233.65,489.4369,224.8318,485.0505,228.6547,489.2202,224.4851,493.043,233.65,489.4369" style="stroke:#181818;stroke-width:1;"/></g><!--link A to UC_SPECIALTIES--><g class="link" data-entity-1="ent0002" data-entity-2="ent0009" data-link-type="dependency" data-source-line="38" id="lnk24"><path d="M43.87,405.3069 C52.23,440.5569 69.81,491.5969 104.96,520.8569 C125.79,538.2069 146.7293,547.2636 173.0993,553.4636" fill="none" id="A-to-UC_SPECIALTIES" style="stroke:#181818;stroke-width:1;"/><polygon fill="#181818" points="178.94,554.8369,171.0944,548.8832,174.0727,553.6925,169.2634,556.6708,178.94,554.8369" style="stroke:#181818;stroke-width:1;"/></g><!--link A to UC_SET_ADDR--><g class="link" data-entity-1="ent0002" data-entity-2="ent0010" data-link-type="dependency" data-source-line="39" id="lnk25"><path d="M66,372.0769 C94.54,377.2069 133.8646,384.2854 175.5346,391.7754" fill="none" id="A-to-UC_SET_ADDR" style="stroke:#181818;stroke-width:1;"/><polygon fill="#181818" points="181.44,392.8369,173.2896,387.3078,176.5189,391.9523,171.8743,395.1816,181.44,392.8369" style="stroke:#181818;stroke-width:1;"/></g><!--link A to UC_VALIDATE--><g class="link" data-entity-1="ent0002" data-entity-2="ent0011" data-link-type="dependency" data-source-line="40" id="lnk26"><path d="M40.16,328.2469 C45.8,287.5569 61.47,225.3669 104.96,195.8569 C329.78,43.2969 470.62,82.7769 716.27,198.8569 C805.29,240.9269 863.1047,346.1669 883.6447,388.5769" fill="none" id="A-to-UC_VALIDATE" style="stroke:#181818;stroke-width:1;"/><polygon fill="#181818" points="886.26,393.9769,885.937,384.1333,884.0806,389.4769,878.737,387.6204,886.26,393.9769" style="stroke:#181818;stroke-width:1;"/></g><!--link A to UC_CLAIM_PAYMENT--><g class="link" data-entity-1="ent0002" data-entity-2="ent0012" data-link-type="dependency" data-source-line="41" id="lnk27"><path d="M59.03,328.4769 C70.64,311.4969 86.34,292.7269 104.96,280.8569 C127.82,266.2869 149.4104,258.1348 175.7704,251.9148" fill="none" id="A-to-UC_CLAIM_PAYMENT" style="stroke:#181818;stroke-width:1;"/><polygon fill="#181818" points="181.61,250.5369,171.9319,248.7107,176.7436,251.6852,173.7692,256.4969,181.61,250.5369" style="stroke:#181818;stroke-width:1;"/></g><!--link A to UC_CLAIM_GUARANTEE--><g class="link" data-entity-1="ent0002" data-entity-2="ent0013" data-link-type="dependency" data-source-line="42" id="lnk28"><path d="M66,361.6369 C97.96,355.8869 144.9347,347.4387 190.3147,339.2787" fill="none" id="A-to-UC_CLAIM_GUARANTEE" style="stroke:#181818;stroke-width:1;"/><polygon fill="#181818" points="196.22,338.2169,186.6542,335.8728,191.2989,339.1018,188.07,343.7465,196.22,338.2169" style="stroke:#181818;stroke-width:1;"/></g><!--link UC_SET_ADDR to UC_VALIDATE--><g class="link" data-entity-1="ent0010" data-entity-2="ent0011" data-link-type="dependency" data-source-line="44" id="lnk29"><path d="M412.63,411.7369 C422.66,411.7869 432.63,411.8269 442.27,411.8569 C564.04,412.2469 594.49,412.1969 716.27,411.8569 C751.29,411.7569 784.2001,411.5957 816.6601,411.3857" fill="none" id="UC_SET_ADDR-to-UC_VALIDATE" style="stroke:#181818;stroke-width:1;stroke-dasharray:7,7;"/><polygon fill="#181818" points="822.66,411.3469,813.6343,407.4052,817.6601,411.3792,813.6861,415.405,822.66,411.3469" style="stroke:#181818;stroke-width:1;"/><text fill="#000000" font-family="sans-serif" font-size="13" lengthAdjust="spacing" textLength="61.1851" x="549.0251" y="392.9238">&#171;extend&#187;</text><text fill="#000000" font-family="sans-serif" font-size="13" lengthAdjust="spacing" textLength="272.6953" x="443.27" y="408.0566">contrat non d&#233;ploy&#233; au moment du d&#233;p&#244;t</text></g><!--link D to UC_DEPOSIT--><g class="link" data-entity-1="ent0003" data-entity-2="ent0015" data-link-type="dependency" data-source-line="46" id="lnk30"><path d="M324.12,1090.6369 C503.82,1067.4069 1221.02,973.9769 1239.76,959.8569 C1245.2,955.7569 1323.4179,775.5737 1348.7879,716.9237" fill="none" id="D-to-UC_DEPOSIT" style="stroke:#181818;stroke-width:1;"/><polygon fill="#181818" points="1351.17,711.4169,1343.9256,718.0891,1349.1849,716.0059,1351.2681,721.2652,1351.17,711.4169" style="stroke:#181818;stroke-width:1;"/></g><!--link D to UC_REFUND--><g class="link" data-entity-1="ent0003" data-entity-2="ent0016" data-link-type="dependency" data-source-line="47" id="lnk31"><path d="M310.58,1057.3669 C339.62,1014.2869 385.25,941.4769 412.27,872.8569 C433.99,817.6869 397.92,782.2269 442.27,742.8569 C534.3,661.1569 675.9631,660.1187 777.2431,672.3287" fill="none" id="D-to-UC_REFUND" style="stroke:#181818;stroke-width:1;"/><polygon fill="#181818" points="783.2,673.0469,774.7435,667.9984,778.2359,672.4484,773.7859,675.9409,783.2,673.0469" style="stroke:#181818;stroke-width:1;"/></g><!--link D to UC_EXPLOIT--><g class="link" data-entity-1="ent0003" data-entity-2="ent0017" data-link-type="dependency" data-source-line="48" id="lnk32"><path d="M321.2,1057.3969 C351.35,1028.7569 396.12,990.9469 442.27,968.8569 C566.16,909.5569 720.1338,885.4925 812.6838,875.6325" fill="none" id="D-to-UC_EXPLOIT" style="stroke:#181818;stroke-width:1;"/><polygon fill="#181818" points="818.65,874.9969,809.2769,871.9728,813.6781,875.5266,810.1244,879.9278,818.65,874.9969" style="stroke:#181818;stroke-width:1;"/></g><!--link D to UC_CLAIM_GUARANTEE_EXPLOIT--><g class="link" data-entity-1="ent0003" data-entity-2="ent0018" data-link-type="dependency" data-source-line="49" id="lnk33"><path d="M304.99,1057.5869 C331.49,1013.7369 380.76,942.9169 442.27,903.8569 C544.97,838.6369 676.7801,810.7905 773.0701,798.2705" fill="none" id="D-to-UC_CLAIM_GUARANTEE_EXPLOIT" style="stroke:#181818;stroke-width:1;"/><polygon fill="#181818" points="779.02,797.4969,769.5794,794.6907,774.0617,798.1416,770.6109,802.6239,779.02,797.4969" style="stroke:#181818;stroke-width:1;"/></g><!--link DAO to UC_RESOLVE--><g class="link" data-entity-1="ent0004" data-entity-2="ent0020" data-link-type="dependency" data-source-line="51" id="lnk34"><path d="M910.88,1093.1769 C958.89,1084.3969 1113.93,1055.1069 1239.76,1020.8569 C1263.36,1014.4369 1283.5069,1008.0511 1305.0669,1000.7511" fill="none" id="DAO-to-UC_RESOLVE" style="stroke:#181818;stroke-width:1;"/><polygon fill="#181818" points="1310.75,998.8269,1300.9426,997.9245,1306.0141,1000.4304,1303.5082,1005.5019,1310.75,998.8269" style="stroke:#181818;stroke-width:1;"/></g><!--link O to UC_LINK--><g class="link" data-entity-1="ent0005" data-entity-2="ent0022" data-link-type="dependency" data-source-line="52" id="lnk35"><path d="M59.12,831.8569 C86.7,831.8569 129.69,831.8569 174.69,831.8569" fill="none" id="O-to-UC_LINK" style="stroke:#181818;stroke-width:1;"/><polygon fill="#181818" points="180.69,831.8569,171.69,827.8569,175.69,831.8569,171.69,835.8569,180.69,831.8569" style="stroke:#181818;stroke-width:1;"/></g><!--link UC_VALIDATE to UC_DEPOSIT--><g class="link" data-entity-1="ent0011" data-entity-2="ent0015" data-link-type="dependency" data-source-line="54" id="lnk36"><path d="M922.22,426.8869 C1003.19,476.4069 1243.7514,623.5263 1326.2714,673.9963" fill="none" id="UC_VALIDATE-to-UC_DEPOSIT" style="stroke:#181818;stroke-width:1;stroke-dasharray:7,7;"/><polygon fill="#181818" points="1331.39,677.1269,1325.7992,669.0187,1327.1245,674.5181,1321.6251,675.8434,1331.39,677.1269" style="stroke:#181818;stroke-width:1;"/><text fill="#000000" font-family="sans-serif" font-size="13" lengthAdjust="spacing" textLength="63.0068" x="1124.2917" y="499.9238">&#171;include&#187;</text><text fill="#000000" font-family="sans-serif" font-size="13" lengthAdjust="spacing" textLength="141.0703" x="1085.26" y="515.0566">audit PENDING requis</text></g><!--link UC_CLAIM_PAYMENT to UC_VALIDATE--><g class="link" data-entity-1="ent0012" data-entity-2="ent0011" data-link-type="dependency" data-source-line="55" id="lnk37"><path d="M396,236.7169 C485.45,238.4869 612.41,248.8769 716.27,287.8569 C781.97,312.5169 842.1028,362.7372 872.1228,390.1972" fill="none" id="UC_CLAIM_PAYMENT-to-UC_VALIDATE" style="stroke:#181818;stroke-width:1;stroke-dasharray:7,7;"/><polygon fill="#181818" points="876.55,394.2469,872.609,385.2209,872.8607,390.8721,867.2094,391.1238,876.55,394.2469" style="stroke:#181818;stroke-width:1;"/><text fill="#000000" font-family="sans-serif" font-size="13" lengthAdjust="spacing" textLength="63.0068" x="548.0571" y="219.9238">&#171;include&#187;</text><text fill="#000000" font-family="sans-serif" font-size="13" lengthAdjust="spacing" textLength="155.5811" x="501.77" y="235.0566">audit VALIDATED requis</text></g><!--link UC_CLAIM_GUARANTEE to UC_VALIDATE--><g class="link" data-entity-1="ent0013" data-entity-2="ent0011" data-link-type="dependency" data-source-line="56" id="lnk38"><path d="M383.14,332.9769 C471.02,342.4069 602.49,357.7169 716.27,375.8569 C758.35,382.5669 799.8071,390.7583 835.0371,398.1283" fill="none" id="UC_CLAIM_GUARANTEE-to-UC_VALIDATE" style="stroke:#181818;stroke-width:1;stroke-dasharray:7,7;"/><polygon fill="#181818" points="840.91,399.3569,832.9198,393.5988,836.0159,398.3331,831.2816,401.4292,840.91,399.3569" style="stroke:#181818;stroke-width:1;"/><text fill="#000000" font-family="sans-serif" font-size="13" lengthAdjust="spacing" textLength="63.0068" x="547.7803" y="306.9238">&#171;include&#187;</text><text fill="#000000" font-family="sans-serif" font-size="13" lengthAdjust="spacing" textLength="139.0454" x="509.761" y="322.0566">guaranteeEnd atteint</text><text fill="#000000" font-family="sans-serif" font-size="13" lengthAdjust="spacing" textLength="174.0273" x="492.27" y="337.1894">ou exploit rejet&#233; (CLOSED)</text></g><!--link UC_EXPLOIT to UC_VALIDATE--><g class="link" data-entity-1="ent0017" data-entity-2="ent0011" data-link-type="dependency" data-source-line="57" id="lnk39"><path d="M816.62,873.4569 C739.6,873.1269 625.86,858.5969 570.89,782.8569 C463.59,635.0269 754.5562,477.9644 856.5362,428.7544" fill="none" id="UC_EXPLOIT-to-UC_VALIDATE" style="stroke:#181818;stroke-width:1;stroke-dasharray:7,7;"/><polygon fill="#181818" points="861.94,426.1469,852.096,426.4557,857.4369,428.3198,855.5727,433.6607,861.94,426.1469" style="stroke:#181818;stroke-width:1;"/><text fill="#000000" font-family="sans-serif" font-size="13" lengthAdjust="spacing" textLength="63.0068" x="547.9477" y="763.9238">&#171;include&#187;</text><text fill="#000000" font-family="sans-serif" font-size="13" lengthAdjust="spacing" textLength="128.3623" x="515.27" y="779.0566">pendant la garantie</text></g><!--link UC_REFUND to UC_DEPOSIT--><g class="link" data-entity-1="ent0016" data-entity-2="ent0015" data-link-type="dependency" data-source-line="58" id="lnk40"><path d="M1042.11,693.8569 C1122.36,693.8569 1212.52,693.8569 1277.66,693.8569" fill="none" id="UC_REFUND-to-UC_DEPOSIT" style="stroke:#181818;stroke-width:1;stroke-dasharray:7,7;"/><polygon fill="#181818" points="1283.66,693.8569,1274.66,689.8569,1278.66,693.8569,1274.66,697.8569,1283.66,693.8569" style="stroke:#181818;stroke-width:1;"/><text fill="#000000" font-family="sans-serif" font-size="13" lengthAdjust="spacing" textLength="63.0068" x="1124.6426" y="674.9238">&#171;include&#187;</text><text fill="#000000" font-family="sans-serif" font-size="13" lengthAdjust="spacing" textLength="166.772" x="1072.76" y="690.0566">apr&#232;s 10 j sans validation</text></g><!--link UC_RESOLVE to UC_EXPLOIT--><g class="link" data-entity-1="ent0020" data-entity-2="ent0017" data-link-type="dependency" data-source-line="59" id="lnk41"><path d="M1298.57,967.1669 C1208.22,945.0969 1044.6388,905.1501 957.1988,883.8001" fill="none" id="UC_RESOLVE-to-UC_EXPLOIT" style="stroke:#181818;stroke-width:1;stroke-dasharray:7,7;"/><polygon fill="#181818" points="951.37,882.3769,959.1644,888.3975,956.2273,883.5629,961.0619,880.6258,951.37,882.3769" style="stroke:#181818;stroke-width:1;"/><text fill="#000000" font-family="sans-serif" font-size="13" lengthAdjust="spacing" textLength="63.0068" x="1124.26" y="908.9238">&#171;include&#187;</text></g><!--link UC_CLAIM_GUARANTEE_EXPLOIT to UC_RESOLVE--><g class="link" data-entity-1="ent0018" data-entity-2="ent0020" data-link-type="dependency" data-source-line="60" id="lnk42"><path d="M1009.34,798.1869 C1081.91,809.8669 1174.38,834.7769 1239.76,887.8569 C1245.62,892.6169 1242.77,897.1869 1247.76,902.8569 C1269.62,927.7269 1295.6099,945.9485 1319.3499,960.1385" fill="none" id="UC_CLAIM_GUARANTEE_EXPLOIT-to-UC_RESOLVE" style="stroke:#181818;stroke-width:1;stroke-dasharray:7,7;"/><polygon fill="#181818" points="1324.5,963.2169,1318.8271,955.1659,1320.2082,960.6516,1314.7226,962.0328,1324.5,963.2169" style="stroke:#181818;stroke-width:1;"/><text fill="#000000" font-family="sans-serif" font-size="13" lengthAdjust="spacing" textLength="61.1851" x="1125.2461" y="792.9238">&#171;extend&#187;</text><text fill="#000000" font-family="sans-serif" font-size="13" lengthAdjust="spacing" textLength="162.1572" x="1074.76" y="808.0566">exploit valid&#233; par la DAO</text></g><?plantuml-src bLHDQzj04BtlhnW49VOX8QM7GWa1OQb6rB6CxOGM364hRTnDvLrtFzAKqF_IOttlFz0VwsXjoP8bcrOdCLgzUM_clJNSP0m6L4DwPWtFkAQ6Im7duDkKcobRSctK3q8ozc30I51y-SL0oXLBYeE4qCH81Puxpgpo013CByi1Mr6HkZgMWwhintZGFKNPZyiFyNV1b5T-Y0af-b2nH9BUH4aZ4ucl3MuUl102iAR9Lxh4OqEcdOIKGNP6Arelf02rcYLKuwdP6HSwKQYZ97BaGHgtW_jfE8ncyt3Q1BbXnYW6-Izub5Q1PXhqEjyad6RSv1ljjN1cat0G-QDv5CwQK46-UU22gu9pgfZ6MceXaS8eQi39o3TU7IcSt_j1SC3e3ZkdJ84Lst-yqxBk_54K-FEm2J952HbT8GpEUaqvMp5XeFVs4bxrlGwKmSYFRkud_gURS3m_2aLXIHKLXZFelJaDDRprf_vu7XQyVdOlr-9-Askzj6QvblhVfn24atWM7MMEA8gjFkE6zMuIXg-OjARlDHpo_dOS79YCBmNDjX3iUPt9OrIs4E77oIZkuc7HLAfpXWj1roh_hKjuU2eCK3YbSvwr5WTpbVQ9AK55mbhZH0PQMZHb8OEB10qcMZhA8SpYqLrxRNwwGdFhmikulLQ74NTUqwNVzKBqDAiIxgSk4VrIr2WQVt0ji8cFEEVdrusCrchrlDNBPNXgjIeBjLhJsQqFUv-I6YXSN3G0uHrSNR5dmqHwVRqGPQP5OMDqQYP_v1lqAQoaSrTXRIpdVmmXmRvZQTAWBjXPhbOfrniSPLeT8NZhxe6sQultlxaPaxeAz-oaxSYKooy4eZ4ocx92eSiSJC9n48s7c9rlbcjoECtMb4v0bMU25bYbgnFk06nfNNWO2qKAr1Z6XLa8QQlmAFR8y9g5tc0KpyAWJ_OZXOR-qwJNk6diKuyhgTO5y3-Jt8RxzIKyWgP2R-FjGaJsUsjT9pli9lNE5kIuGqgKxYPDJn_SFXXyTrcXnVu2?></g></svg>